<?xml version="1.0" encoding="UTF-8" standalone="no"?>
<!DOCTYPE svg PUBLIC "-//W3C//DTD SVG 1.1//EN" "http://www.w3.org/Graphics/SVG/1.1/DTD/svg11.dtd">
<svg width="100%" height="100%" viewBox="0 0 499 444" version="1.1" xmlns="http://www.w3.org/2000/svg" xmlns:xlink="http://www.w3.org/1999/xlink" xml:space="preserve" xmlns:serif="http://www.serif.com/" style="fill-rule:evenodd;clip-rule:evenodd;stroke-linejoin:round;stroke-miterlimit:2;">
    <g id="Artboard1" transform="matrix(1,0,0,1,-1159.75,-348.662)">
        <rect x="239.75" y="353.662" width="3070.53" height="442.662" style="fill:none;"/>
        <g transform="matrix(0.892857,0,0,1,1179.03,348.662)">
            <rect x="-30.808" y="-22.798" width="579.494" height="500.472"/>
        </g>
        <g transform="matrix(9.30343,0,0,9.30343,1391.33,603.341)">
            <path d="M0,-5.953C-0.586,-6.771 -1.148,-7.464 -1.696,-8.03C-2.238,-8.592 -2.764,-9.029 -3.269,-9.341C-3.66,-9.577 -4.049,-9.74 -4.44,-9.839C-4.829,-9.933 -5.219,-9.984 -5.608,-9.984C-7.28,-9.984 -8.664,-9.351 -9.752,-8.086C-10.844,-6.821 -11.387,-5.216 -11.387,-3.268C-11.387,-2.76 -11.349,-2.255 -11.273,-1.749C-11.192,-1.243 -11.097,-0.756 -10.981,-0.288C-10.707,0.568 -10.288,1.452 -9.726,2.369C-9.158,3.281 -8.41,4.286 -7.473,5.378L0,-5.953ZM-10.686,12.384C-9.675,11.679 -8.702,11.111 -7.768,10.662C-6.833,10.213 -5.918,9.87 -5.022,9.639C-4.555,9.522 -4.099,9.433 -3.65,9.377C-3.205,9.316 -2.744,9.288 -2.276,9.288L-1.607,9.288C-1.394,9.288 -1.19,9.308 -0.993,9.346C-0.06,9.425 0.913,9.588 1.928,9.844C2.939,10.096 4.182,10.513 5.667,11.099C5.86,11.178 5.997,11.236 6.071,11.274C6.152,11.313 6.229,11.331 6.307,11.331C6.422,11.411 6.633,11.506 6.95,11.623C7.258,11.742 8.019,12.052 9.228,12.557L11.037,13.258L12.792,14.02C13.607,14.33 14.288,14.574 14.832,14.749C15.376,14.924 15.787,15.011 16.061,15.011C16.448,15.011 16.905,14.818 17.433,14.425C17.958,14.038 18.494,13.514 19.036,12.852C19.193,12.696 19.33,12.527 19.447,12.354C19.562,12.179 19.681,12.016 19.798,11.858L20.672,12.384C20.595,12.461 20.547,12.527 20.527,12.59C20.505,12.646 20.478,12.696 20.44,12.733C20.398,12.813 20.329,12.92 20.235,13.053C20.136,13.19 19.973,13.434 19.737,13.782C19.232,14.485 18.899,14.955 18.744,15.186C18.589,15.422 18.474,15.597 18.394,15.71C18.315,15.791 18.251,15.885 18.188,16.002C18.132,16.121 18.025,16.296 17.87,16.528C17.286,17.386 16.923,17.924 16.79,18.135C16.653,18.349 16.546,18.516 16.466,18.631C16.43,18.669 16.391,18.711 16.353,18.748C16.311,18.786 16.272,18.844 16.236,18.923C15.998,18.885 15.767,18.824 15.531,18.748C15.299,18.669 15.068,18.611 14.832,18.573C14.095,18.379 13.323,18.117 12.524,17.787C11.726,17.457 10.727,17.017 9.516,16.471C6.17,14.955 3.501,13.863 1.517,13.202C-0.467,12.539 -2.319,12.171 -4.029,12.092C-4.224,12.052 -4.422,12.034 -4.615,12.034L-5.197,12.034C-6.988,12.034 -8.547,12.402 -9.869,13.142C-11.192,13.883 -12.477,15.092 -13.724,16.764C-13.881,16.995 -14.036,17.231 -14.192,17.465C-14.349,17.698 -14.504,17.93 -14.661,18.164L-15.535,17.581L-9.637,8.647C-10.805,7.167 -11.68,5.608 -12.264,3.974C-12.846,2.338 -13.14,0.624 -13.14,-1.167C-13.14,-4.243 -12.185,-6.918 -10.282,-9.196C-8.372,-11.474 -6.152,-12.611 -3.622,-12.611C-2.844,-12.611 -2.133,-12.504 -1.491,-12.29C-0.848,-12.075 -0.216,-11.736 0.407,-11.269C0.719,-11.035 1.041,-10.763 1.374,-10.451C1.704,-10.139 2.022,-9.79 2.335,-9.398C2.335,-9.44 2.353,-9.478 2.391,-9.516C2.391,-9.555 2.441,-9.663 2.54,-9.839C2.635,-10.014 2.897,-10.451 3.328,-11.15C3.406,-11.269 3.475,-11.386 3.531,-11.501C3.59,-11.62 3.658,-11.736 3.737,-11.853C3.932,-12.28 4.087,-12.691 4.204,-13.078C4.319,-13.465 4.379,-13.819 4.379,-14.131L4.379,-14.422C4.379,-14.5 4.357,-14.577 4.319,-14.655C4.281,-14.693 4.232,-14.752 4.176,-14.83C4.117,-14.907 4.049,-15.006 3.97,-15.125L4.319,-15.125C4.319,-15.161 4.331,-15.181 4.349,-15.181L4.905,-15.181C5.137,-15.181 5.548,-15.199 6.132,-15.237C6.327,-15.237 6.559,-15.262 6.833,-15.3C7.103,-15.336 7.552,-15.374 8.174,-15.417C7.943,-15.102 7.657,-14.706 7.326,-14.22C6.996,-13.733 6.46,-12.923 5.723,-11.793C5.642,-11.68 5.566,-11.561 5.491,-11.444C5.411,-11.325 5.334,-11.211 5.254,-11.094C5.254,-11.055 5.235,-11.013 5.197,-10.977C4.961,-10.588 4.7,-10.189 4.408,-9.778C4.117,-9.371 3.737,-8.836 3.271,-8.175C3.308,-8.135 3.346,-8.074 3.388,-8C3.427,-7.919 3.539,-7.756 3.737,-7.502C3.932,-7.25 4.418,-6.577 5.197,-5.486C6.633,-3.54 8.126,-2.097 9.665,-1.167C11.202,-0.232 12.884,0.237 14.715,0.237C16.973,0.237 19,-0.875 20.789,-3.094C22.579,-5.31 23.474,-7.8 23.474,-10.57C23.474,-12.866 22.716,-14.55 21.196,-15.618C19.681,-16.69 17.304,-17.226 14.071,-17.226C12.866,-17.226 11.299,-17.177 9.373,-17.078C7.445,-16.984 4.961,-16.817 1.928,-16.583C1.692,-16.583 1.537,-16.571 1.46,-16.553C1.38,-16.535 1.303,-16.523 1.225,-16.523C0.993,-16.523 0.399,-16.486 -0.554,-16.408C-1.509,-16.329 -4.403,-16.116 -9.228,-15.767C-9.693,-15.725 -10.145,-15.697 -10.57,-15.679C-10.999,-15.656 -11.428,-15.63 -11.855,-15.592C-12.322,-15.55 -12.82,-15.529 -13.345,-15.529L-15.009,-15.529C-16.838,-15.529 -18.359,-15.638 -19.564,-15.854C-20.771,-16.067 -21.705,-16.408 -22.368,-16.877L-20.146,-24.876L-19.155,-24.584C-19.31,-23.803 -19.429,-23.231 -19.508,-22.862C-19.584,-22.491 -19.622,-22.151 -19.622,-21.839L-19.622,-21.72C-19.622,-20.789 -19.215,-20.134 -18.398,-19.766C-17.58,-19.393 -16.139,-19.212 -14.075,-19.212C-12.477,-19.212 -10.58,-19.268 -8.38,-19.385C-6.182,-19.504 -3.467,-19.677 -0.236,-19.911C1.555,-20.066 3.096,-20.191 4.379,-20.292C5.667,-20.39 6.597,-20.459 7.181,-20.497C8.469,-20.572 9.722,-20.634 10.95,-20.67C12.173,-20.708 13.255,-20.727 14.19,-20.727C18.238,-20.727 21.266,-20.048 23.272,-18.686C25.277,-17.322 26.28,-15.262 26.28,-12.498C26.28,-11.988 26.238,-11.462 26.161,-10.918C26.083,-10.371 25.986,-9.827 25.869,-9.283C25.519,-8 24.995,-6.745 24.292,-5.516C23.591,-4.287 22.755,-3.171 21.782,-2.16C20.458,-0.718 19,0.342 17.402,1.023C15.805,1.708 14.034,2.046 12.086,2.046C10.92,2.046 9.871,1.929 8.936,1.696C7.999,1.46 7.085,1.073 6.19,0.529C5.372,-0.019 4.544,-0.718 3.707,-1.574C2.871,-2.428 1.928,-3.501 0.874,-4.787L-10.686,12.384Z" style="fill:white;fill-rule:nonzero;"/>
        </g>
    </g>
    <g id="Artboard3" transform="matrix(0.939665,0,0,1,4.61754,2.08647)">
        <rect x="-4.914" y="-2.086" width="530.126" height="443.652" style="fill:none;"/>
    </g>
</svg>
