<?xml version="1.0" encoding="UTF-8" standalone="no"?>
<!DOCTYPE svg PUBLIC "-//W3C//DTD SVG 1.1//EN" "http://www.w3.org/Graphics/SVG/1.1/DTD/svg11.dtd">
<svg width="100%" height="100%" viewBox="0 0 3486 324" version="1.1" xmlns="http://www.w3.org/2000/svg" xmlns:xlink="http://www.w3.org/1999/xlink" xml:space="preserve" xmlns:serif="http://www.serif.com/" style="fill-rule:evenodd;clip-rule:evenodd;stroke-linejoin:round;stroke-miterlimit:2;">
    <g id="Artboard1" transform="matrix(1,0,0,0.919932,-12.5639,-249.934)">
        <rect x="12.564" y="271.687" width="3485.09" height="351.319" style="fill:none;"/>
        <g transform="matrix(5.95388,0,0,6.47209,3274.7,420.435)">
            <path d="M0,15.529C-4.234,15.529 -7.667,12.096 -7.667,7.864C-7.667,3.632 -4.234,0.199 0,0.199C4.234,0.199 7.665,3.632 7.665,7.864C7.665,12.096 4.234,15.529 0,15.529M7.8,-3.056L-7.911,-3.056C-9.546,-3.056 -10.874,-1.728 -10.874,-0.091L-10.874,15.62C-10.874,17.257 -9.546,18.585 -7.911,18.585L7.8,18.585C9.44,18.585 10.767,17.257 10.767,15.62L10.767,-0.091C10.767,-1.728 9.44,-3.056 7.8,-3.056" style="fill:rgb(252,252,252);fill-rule:nonzero;"/>
        </g>
        <g transform="matrix(5.95388,0,0,6.47209,3172.82,439.468)">
            <path d="M0,9.849C0,11.122 -1.033,12.154 -2.305,12.154L-11.949,12.154C-13.219,12.154 -14.252,11.122 -14.252,9.849L-14.252,0.206C-14.252,-1.067 -13.219,-2.098 -11.949,-2.098L-2.305,-2.098C-1.033,-2.098 0,-1.067 0,0.206L0,9.849ZM0.701,-5.896L-15.009,-5.896C-16.647,-5.896 -17.975,-4.568 -17.975,-2.93L-17.975,12.782C-17.975,14.42 -16.647,15.745 -15.009,15.745L0.701,15.745C2.339,15.745 3.666,14.42 3.666,12.782L3.666,-2.93C3.666,-4.568 2.339,-5.896 0.701,-5.896" style="fill:rgb(252,252,252);fill-rule:nonzero;"/>
        </g>
        <g transform="matrix(5.95388,0,0,6.47209,3030.89,425.452)">
            <path d="M0,14.199L-14.377,14.199C-15.245,14.199 -15.781,13.244 -15.324,12.503L-8.142,0.813C-7.707,0.108 -6.68,0.106 -6.247,0.813L0.951,12.501C1.406,13.244 0.872,14.199 0,14.199M0.592,-3.721L-15.118,-3.721C-16.756,-3.721 -18.085,-2.394 -18.085,-0.756L-18.085,14.954C-18.085,16.592 -16.756,17.92 -15.118,17.92L0.592,17.92C2.23,17.92 3.557,16.592 3.557,14.954L3.557,-0.756C3.557,-2.394 2.23,-3.721 0.592,-3.721" style="fill:rgb(252,252,252);fill-rule:nonzero;"/>
        </g>
        <g transform="matrix(5.95388,0,0,6.47209,3465.91,477.172)">
            <path d="M0,-2.001L-3.058,0.978C-3.259,1.176 -3.352,1.46 -3.304,1.738L-2.583,5.944C-2.462,6.645 -3.197,7.179 -3.825,6.848L-7.602,4.862C-7.852,4.731 -8.152,4.731 -8.402,4.862L-12.179,6.848C-12.808,7.179 -13.545,6.645 -13.424,5.944L-12.703,1.738C-12.655,1.46 -12.747,1.176 -12.949,0.978L-16.005,-2.001C-16.514,-2.497 -16.234,-3.361 -15.529,-3.464L-11.305,-4.078C-11.027,-4.118 -10.785,-4.293 -10.66,-4.547L-8.771,-8.375C-8.457,-9.011 -7.548,-9.011 -7.234,-8.375L-5.344,-4.547C-5.221,-4.293 -4.98,-4.118 -4.7,-4.078L-0.475,-3.464C0.228,-3.361 0.508,-2.497 0,-2.001M-0.282,-11.821L-15.992,-11.821C-17.63,-11.821 -18.958,-10.494 -18.958,-8.856L-18.958,6.854C-18.958,8.492 -17.63,9.82 -15.992,9.82L-0.282,9.82C1.356,9.82 2.683,8.492 2.683,6.854L2.683,-8.856C2.683,-10.494 1.356,-11.821 -0.282,-11.821" style="fill:rgb(252,252,252);fill-rule:nonzero;"/>
        </g>
        <g transform="matrix(5.95388,0,0,6.47209,2029.13,511.516)">
            <path d="M0,-11.899C0.004,-12.681 -0.558,-13.259 -1.325,-13.263C-2.075,-13.267 -2.691,-12.662 -2.693,-11.919C-2.697,-11.196 -2.083,-10.574 -1.364,-10.567C-0.596,-10.561 -0.004,-11.142 0,-11.899M7.401,3.026C7.248,3.044 7.157,3.066 7.067,3.066C4.675,3.068 2.286,3.074 -0.105,3.058C-0.288,3.058 -0.5,2.953 -0.643,2.83C-0.953,2.57 -1.225,2.266 -1.511,1.978C-1.744,1.741 -2.016,1.614 -2.363,1.632C-2.721,1.652 -3.082,1.636 -3.535,1.636C-3.064,2.117 -2.647,2.54 -2.169,3.028C-2.353,3.052 -2.443,3.076 -2.534,3.076C-3.038,3.08 -3.543,3.092 -4.045,3.068C-4.202,3.06 -4.385,2.981 -4.502,2.875C-4.814,2.601 -5.111,2.305 -5.38,1.99C-5.501,1.845 -5.61,1.634 -5.61,1.452C-5.626,-1.003 -5.622,-3.459 -5.62,-5.914C-5.62,-6.363 -5.616,-6.363 -5.161,-6.365C-4.623,-6.365 -4.085,-6.384 -3.549,-6.357C-3.128,-6.337 -2.842,-6.508 -2.607,-6.837C-2.351,-7.191 -2.071,-7.532 -1.803,-7.876C-1.763,-7.925 -1.708,-7.959 -1.636,-8.021C-1.573,-7.923 -1.511,-7.85 -1.47,-7.765C-1.192,-7.171 -0.923,-6.571 -0.634,-5.981C-0.54,-5.785 -0.536,-5.63 -0.634,-5.431C-1.704,-3.283 -2.76,-1.13 -3.819,1.021C-3.827,1.039 -3.823,1.064 -3.831,1.13C-3.342,1.13 -2.842,1.201 -2.379,1.102C-2.133,1.05 -1.891,0.735 -1.753,0.481C-1.223,-0.477 -0.735,-1.458 -0.236,-2.431C0.149,-3.183 0.534,-3.934 0.917,-4.683C0.937,-4.722 0.967,-4.75 1.044,-4.845C1.088,-4.698 1.132,-4.609 1.14,-4.516C1.227,-3.676 1.311,-2.838 1.388,-1.998C1.44,-1.408 1.69,-1.158 2.292,-1.156C3.815,-1.154 5.338,-1.158 6.863,-1.158L7.711,-1.158C7.677,-1.68 7.417,-2.01 7.038,-2.258C6.652,-2.514 6.217,-2.607 5.755,-2.605C4.956,-2.601 4.156,-2.602 3.354,-2.598C2.947,-2.597 2.885,-2.637 2.836,-3.054C2.792,-3.447 2.738,-3.841 2.75,-4.234C2.788,-5.451 2.482,-6.571 1.88,-7.624C1.644,-8.031 1.454,-8.458 1.195,-8.976C1.465,-8.976 1.666,-8.948 1.859,-8.982C2.607,-9.111 3.096,-8.847 3.388,-8.128C3.547,-7.739 3.819,-7.393 4.051,-7.034C4.275,-6.688 4.623,-6.601 4.921,-6.801C5.199,-6.984 5.258,-7.33 5.052,-7.675C4.682,-8.295 4.305,-8.912 3.928,-9.53C3.719,-9.875 3.4,-10.072 3.008,-10.078C1.616,-10.096 0.222,-10.114 -1.168,-10.086C-1.67,-10.074 -2.006,-9.685 -2.308,-9.321C-2.705,-8.837 -3.088,-8.344 -3.463,-7.844C-3.62,-7.631 -3.793,-7.526 -4.067,-7.538C-4.472,-7.56 -4.879,-7.55 -5.284,-7.542C-5.511,-7.538 -5.624,-7.614 -5.622,-7.864C-5.618,-10.132 -5.618,-12.403 -5.622,-14.671C-5.624,-14.919 -5.519,-14.989 -5.286,-14.989C-1.579,-14.983 2.127,-14.981 5.834,-14.991C6.116,-14.991 6.15,-14.876 6.15,-14.637C6.144,-10.964 6.146,-7.29 6.146,-3.618C6.146,-3.507 6.158,-3.398 6.15,-3.29C6.138,-3.082 6.215,-2.963 6.436,-2.937C7.461,-2.816 7.947,-2.101 8.285,-1.235C8.509,-0.659 8.501,-0.655 7.876,-0.657C7.393,-0.659 6.911,-0.653 6.428,-0.665C6.215,-0.671 6.14,-0.598 6.142,-0.383C6.152,0.242 6.132,0.868 6.156,1.493C6.162,1.648 6.257,1.823 6.366,1.944C6.629,2.238 6.924,2.502 7.202,2.78C7.26,2.838 7.306,2.907 7.401,3.026" style="fill:rgb(252,252,252);fill-rule:nonzero;"/>
        </g>
        <g transform="matrix(5.95388,0,0,6.47209,2824.32,436.733)">
            <path d="M0,11.206C1.249,9.903 2.462,8.638 3.686,7.357C3.616,7.35 3.537,7.34 3.457,7.34C1.199,7.338 -19.812,7.328 -22.07,7.342C-22.41,7.344 -22.503,7.24 -22.497,6.915C-22.481,6.005 -22.497,5.094 -22.497,4.186C-22.497,4.089 -22.477,3.992 -22.463,3.863L3.749,3.863C2.484,2.562 1.265,1.311 0.016,0.026C0.123,0.014 0.211,-0.006 0.3,-0.006C1.66,-0.006 3.022,-0.01 4.381,0.006C4.534,0.008 4.728,0.084 4.837,0.193C6.615,1.934 8.382,3.686 10.153,5.433C10.286,5.564 10.326,5.652 10.169,5.805C8.426,7.503 6.684,9.202 4.955,10.912C4.734,11.132 4.508,11.216 4.2,11.212C2.929,11.198 1.656,11.206 0.383,11.206L0,11.206Z" style="fill:rgb(252,252,252);fill-rule:nonzero;"/>
        </g>
        <g transform="matrix(0,6.47209,5.95388,0,2325.47,461.718)">
            <path d="M1.683,-1.683C2.612,-1.683 3.365,-0.93 3.365,-0.001C3.365,0.93 2.612,1.683 1.683,1.683C0.754,1.683 0.001,0.93 0.001,-0.001C0.001,-0.93 0.754,-1.683 1.683,-1.683" style="fill:rgb(252,252,252);fill-rule:nonzero;"/>
        </g>
        <g transform="matrix(0,6.47209,5.95388,0,2294.43,461.712)">
            <path d="M1.684,-1.684C2.613,-1.684 3.366,-0.929 3.366,0C3.366,0.931 2.613,1.684 1.684,1.684C0.755,1.684 0.002,0.931 0.002,0C0.002,-0.929 0.755,-1.684 1.684,-1.684" style="fill:rgb(252,252,252);fill-rule:nonzero;"/>
        </g>
        <g transform="matrix(0,6.47209,5.95388,0,2356.6,461.718)">
            <path d="M1.683,-1.683C2.612,-1.683 3.365,-0.93 3.365,0.001C3.365,0.93 2.612,1.683 1.683,1.683C0.754,1.683 0.001,0.93 0.001,0.001C0.001,-0.93 0.754,-1.683 1.683,-1.683" style="fill:rgb(252,252,252);fill-rule:nonzero;"/>
        </g>
        <g transform="matrix(0,6.47209,5.95388,0,2387.69,461.712)">
            <path d="M1.684,-1.684C2.613,-1.684 3.366,-0.931 3.366,0C3.366,0.929 2.613,1.684 1.684,1.684C0.755,1.684 0.002,0.929 0.002,0C0.002,-0.931 0.755,-1.684 1.684,-1.684" style="fill:rgb(252,252,252);fill-rule:nonzero;"/>
        </g>
        <g transform="matrix(0,6.47209,5.95388,0,2418.78,461.718)">
            <path d="M1.683,-1.683C2.612,-1.683 3.365,-0.93 3.365,-0.001C3.365,0.93 2.612,1.683 1.683,1.683C0.754,1.683 0.001,0.93 0.001,-0.001C0.001,-0.93 0.754,-1.683 1.683,-1.683" style="fill:rgb(252,252,252);fill-rule:nonzero;"/>
        </g>
        <g transform="matrix(0,6.47209,5.95388,0,2449.87,461.718)">
            <path d="M1.683,-1.683C2.612,-1.683 3.365,-0.93 3.365,0.001C3.365,0.93 2.612,1.683 1.683,1.683C0.754,1.683 0.001,0.93 0.001,0.001C0.001,-0.93 0.754,-1.683 1.683,-1.683" style="fill:rgb(252,252,252);fill-rule:nonzero;"/>
        </g>
        <g transform="matrix(0,6.47209,5.95388,0,2480.95,461.718)">
            <path d="M1.683,-1.683C2.612,-1.683 3.365,-0.93 3.365,0.001C3.365,0.93 2.612,1.683 1.683,1.683C0.754,1.683 0.001,0.93 0.001,0.001C0.001,-0.93 0.754,-1.683 1.683,-1.683" style="fill:rgb(252,252,252);fill-rule:nonzero;"/>
        </g>
        <g transform="matrix(0,6.47209,5.95388,0,2512.05,461.718)">
            <path d="M1.683,-1.683C2.612,-1.683 3.365,-0.93 3.365,-0.001C3.365,0.93 2.612,1.683 1.683,1.683C0.754,1.683 0.001,0.93 0.001,-0.001C0.001,-0.93 0.754,-1.683 1.683,-1.683" style="fill:rgb(252,252,252);fill-rule:nonzero;"/>
        </g>
        <g transform="matrix(0,6.47209,5.95388,0,2543.13,461.718)">
            <path d="M1.683,-1.683C2.612,-1.683 3.365,-0.93 3.365,0.001C3.365,0.93 2.612,1.683 1.683,1.683C0.754,1.683 0.001,0.93 0.001,0.001C0.001,-0.93 0.754,-1.683 1.683,-1.683" style="fill:rgb(252,252,252);fill-rule:nonzero;"/>
        </g>
        <g transform="matrix(0,6.47209,5.95388,0,2574.22,461.718)">
            <path d="M1.683,-1.683C2.612,-1.683 3.365,-0.93 3.365,0.001C3.365,0.93 2.612,1.683 1.683,1.683C0.754,1.683 0.001,0.93 0.001,0.001C0.001,-0.93 0.754,-1.683 1.683,-1.683" style="fill:rgb(252,252,252);fill-rule:nonzero;"/>
        </g>
        <g transform="matrix(0,6.47209,5.95388,0,2605.32,461.718)">
            <path d="M1.683,-1.683C2.612,-1.683 3.365,-0.93 3.365,-0.001C3.365,0.93 2.612,1.683 1.683,1.683C0.754,1.683 0.001,0.93 0.001,-0.001C0.001,-0.93 0.754,-1.683 1.683,-1.683" style="fill:rgb(252,252,252);fill-rule:nonzero;"/>
        </g>
        <g transform="matrix(0,6.47209,5.95388,0,2636.4,461.718)">
            <path d="M1.683,-1.683C2.612,-1.683 3.365,-0.93 3.365,-0.001C3.365,0.93 2.612,1.683 1.683,1.683C0.754,1.683 0.001,0.93 0.001,-0.001C0.001,-0.93 0.754,-1.683 1.683,-1.683" style="fill:rgb(252,252,252);fill-rule:nonzero;"/>
        </g>
        <g transform="matrix(0,6.47209,5.95388,0,2667.49,461.718)">
            <path d="M1.683,-1.683C2.612,-1.683 3.365,-0.93 3.365,0.001C3.365,0.93 2.612,1.683 1.683,1.683C0.754,1.683 0.001,0.93 0.001,0.001C0.001,-0.93 0.754,-1.683 1.683,-1.683" style="fill:rgb(252,252,252);fill-rule:nonzero;"/>
        </g>
        <g transform="matrix(0,6.47209,5.95388,0,2263.38,461.718)">
            <path d="M1.683,-1.683C2.612,-1.683 3.365,-0.93 3.365,0.001C3.365,0.93 2.612,1.683 1.683,1.683C0.754,1.683 0.001,0.93 0.001,0.001C0.001,-0.93 0.754,-1.683 1.683,-1.683" style="fill:rgb(252,252,252);fill-rule:nonzero;"/>
        </g>
        <g transform="matrix(0,6.47209,5.95388,0,2232.34,461.718)">
            <path d="M1.683,-1.683C2.612,-1.683 3.365,-0.93 3.365,-0.001C3.365,0.93 2.612,1.683 1.683,1.683C0.754,1.683 0.001,0.93 0.001,-0.001C0.001,-0.93 0.754,-1.683 1.683,-1.683" style="fill:rgb(252,252,252);fill-rule:nonzero;"/>
        </g>
        <g transform="matrix(0,6.47209,5.95388,0,2201.3,461.712)">
            <path d="M1.684,-1.684C2.613,-1.684 3.366,-0.931 3.366,0C3.366,0.929 2.613,1.684 1.684,1.684C0.755,1.684 0.002,0.929 0.002,0C0.002,-0.931 0.755,-1.684 1.684,-1.684" style="fill:rgb(252,252,252);fill-rule:nonzero;"/>
        </g>
        <g transform="matrix(0,6.47209,5.95388,0,2170.26,461.718)">
            <path d="M1.683,-1.683C2.612,-1.683 3.365,-0.93 3.365,0.001C3.365,0.93 2.612,1.683 1.683,1.683C0.754,1.683 0.001,0.93 0.001,0.001C0.001,-0.93 0.754,-1.683 1.683,-1.683" style="fill:rgb(252,252,252);fill-rule:nonzero;"/>
        </g>
        <g transform="matrix(0,6.47209,5.95388,0,2139.22,461.718)">
            <path d="M1.683,-1.683C2.612,-1.683 3.365,-0.93 3.365,-0.001C3.365,0.93 2.612,1.683 1.683,1.683C0.754,1.683 0.001,0.93 0.001,-0.001C0.001,-0.93 0.754,-1.683 1.683,-1.683" style="fill:rgb(252,252,252);fill-rule:nonzero;"/>
        </g>
        <g transform="matrix(0,6.47209,5.95388,0,2108.17,461.718)">
            <path d="M1.683,-1.683C2.612,-1.683 3.365,-0.93 3.365,0.001C3.365,0.93 2.612,1.683 1.683,1.683C0.754,1.683 0.001,0.93 0.001,0.001C0.001,-0.93 0.754,-1.683 1.683,-1.683" style="fill:rgb(252,252,252);fill-rule:nonzero;"/>
        </g>
        <g transform="matrix(5.95388,0,0,6.47209,1994.73,538.685)">
            <path d="M0,-20.304C-0.611,-20.304 -1.108,-19.807 -1.108,-19.196L-1.108,-1.109C-1.108,-0.497 -0.611,0 0,0L151.455,0C152.065,0 152.562,-0.497 152.562,-1.109L152.562,-19.196C152.562,-19.807 152.065,-20.304 151.455,-20.304L0,-20.304ZM151.455,0.849L0,0.849C-1.079,0.849 -1.958,-0.029 -1.958,-1.109L-1.958,-19.196C-1.958,-20.275 -1.079,-21.153 0,-21.153L151.455,-21.153C152.534,-21.153 153.411,-20.275 153.411,-19.196L153.411,-1.109C153.411,-0.029 152.534,0.849 151.455,0.849" style="fill:rgb(252,252,252);fill-rule:nonzero;"/>
        </g>
        <g transform="matrix(5.95388,0,0,6.47209,70.9023,537.28)">
            <path d="M0,-6.563C-0.125,-7.012 -0.314,-7.413 -0.568,-7.768C-0.822,-8.118 -1.15,-8.4 -1.547,-8.61C-1.946,-8.817 -2.411,-8.922 -2.947,-8.922C-3.509,-8.922 -3.987,-8.811 -4.377,-8.589C-4.77,-8.366 -5.088,-8.078 -5.338,-7.717C-5.584,-7.359 -5.763,-6.952 -5.876,-6.495C-5.987,-6.037 -6.041,-5.574 -6.041,-5.103C-6.041,-4.607 -5.985,-4.13 -5.866,-3.664C-5.749,-3.201 -5.562,-2.794 -5.306,-2.44C-5.052,-2.087 -4.724,-1.803 -4.319,-1.589C-3.914,-1.372 -3.424,-1.265 -2.85,-1.265C-2.276,-1.265 -1.797,-1.376 -1.41,-1.599C-1.025,-1.821 -0.715,-2.115 -0.479,-2.48C-0.246,-2.844 -0.077,-3.261 0.028,-3.733C0.133,-4.204 0.185,-4.686 0.185,-5.181C0.185,-5.652 0.125,-6.112 0,-6.563M-5.985,-10.157L-5.985,-8.785L-5.945,-8.785C-5.671,-9.345 -5.237,-9.754 -4.651,-10.008C-4.065,-10.264 -3.418,-10.39 -2.711,-10.39C-1.93,-10.39 -1.247,-10.247 -0.667,-9.959C-0.087,-9.671 0.397,-9.285 0.782,-8.795C1.168,-8.306 1.458,-7.74 1.654,-7.101C1.849,-6.462 1.948,-5.783 1.948,-5.064C1.948,-4.345 1.853,-3.668 1.664,-3.028C1.475,-2.389 1.186,-1.829 0.802,-1.354C0.417,-0.878 -0.064,-0.504 -0.647,-0.228C-1.227,0.046 -1.904,0.183 -2.673,0.183C-2.923,0.183 -3.199,0.157 -3.505,0.107C-3.813,0.054 -4.115,-0.032 -4.416,-0.149C-4.716,-0.268 -5,-0.427 -5.27,-0.629C-5.538,-0.832 -5.761,-1.082 -5.945,-1.382L-5.985,-1.382L-5.985,3.827L-7.647,3.827L-7.647,-10.157L-5.985,-10.157Z" style="fill:rgb(252,252,252);fill-rule:nonzero;"/>
        </g>
        <g transform="matrix(5.95388,0,0,6.47209,102.837,493.541)">
            <path d="M0,3.308C0.165,3.785 0.389,4.184 0.677,4.505C0.965,4.823 1.299,5.069 1.684,5.238C2.069,5.407 2.478,5.492 2.909,5.492C3.34,5.492 3.747,5.407 4.134,5.238C4.518,5.069 4.855,4.823 5.141,4.505C5.427,4.184 5.654,3.785 5.818,3.308C5.981,2.833 6.063,2.287 6.063,1.672C6.063,1.062 5.981,0.516 5.818,0.039C5.654,-0.437 5.427,-0.84 5.141,-1.164C4.855,-1.492 4.518,-1.74 4.134,-1.909C3.747,-2.079 3.34,-2.165 2.909,-2.165C2.478,-2.165 2.069,-2.079 1.684,-1.909C1.299,-1.74 0.965,-1.492 0.677,-1.164C0.389,-0.84 0.165,-0.437 0,0.039C-0.163,0.516 -0.244,1.062 -0.244,1.672C-0.244,2.287 -0.163,2.833 0,3.308M-1.694,-0.411C-1.483,-1.057 -1.172,-1.619 -0.753,-2.097C-0.336,-2.572 0.179,-2.947 0.794,-3.223C1.408,-3.495 2.111,-3.634 2.909,-3.634C3.719,-3.634 4.426,-3.495 5.034,-3.223C5.64,-2.947 6.152,-2.572 6.571,-2.097C6.988,-1.619 7.302,-1.057 7.51,-0.411C7.719,0.236 7.824,0.929 7.824,1.672C7.824,2.418 7.719,3.109 7.51,3.751C7.302,4.39 6.988,4.948 6.571,5.423C6.152,5.903 5.64,6.273 5.034,6.539C4.426,6.807 3.719,6.942 2.909,6.942C2.111,6.942 1.408,6.807 0.794,6.539C0.179,6.273 -0.336,5.903 -0.753,5.423C-1.172,4.948 -1.483,4.39 -1.694,3.751C-1.902,3.109 -2.006,2.418 -2.006,1.672C-2.006,0.929 -1.902,0.236 -1.694,-0.411" style="fill:rgb(252,252,252);fill-rule:nonzero;"/>
        </g>
        <g transform="matrix(5.95388,0,0,6.47209,210.287,471.549)">
            <path d="M0,10.124L-2.057,2.076L-2.097,2.076L-4.132,10.124L-5.934,10.124L-9.186,0L-7.345,0L-5.052,8.283L-5.014,8.283L-2.977,0L-1.156,0L0.959,8.283L0.999,8.283L3.271,0L4.994,0L1.763,10.124L0,10.124Z" style="fill:rgb(252,252,252);fill-rule:nonzero;"/>
        </g>
        <g transform="matrix(5.95388,0,0,6.47209,289.738,517.677)">
            <path d="M0,-4.15C-0.149,-4.504 -0.353,-4.807 -0.606,-5.063C-0.86,-5.316 -1.16,-5.518 -1.507,-5.669C-1.853,-5.818 -2.236,-5.895 -2.653,-5.895C-3.084,-5.895 -3.473,-5.818 -3.819,-5.669C-4.162,-5.518 -4.462,-5.312 -4.708,-5.05C-4.955,-4.791 -5.155,-4.486 -5.296,-4.14C-5.441,-3.793 -5.526,-3.425 -5.552,-3.034L0.266,-3.034C0.24,-3.425 0.151,-3.797 0,-4.15M0.401,2.35C-0.355,2.927 -1.307,3.213 -2.458,3.213C-3.267,3.213 -3.968,3.082 -4.563,2.82C-5.157,2.56 -5.654,2.193 -6.059,1.726C-6.464,1.255 -6.768,0.693 -6.97,0.04C-7.173,-0.613 -7.288,-1.324 -7.312,-2.093C-7.312,-2.865 -7.195,-3.57 -6.962,-4.208C-6.726,-4.849 -6.396,-5.405 -5.973,-5.872C-5.548,-6.344 -5.044,-6.708 -4.464,-6.97C-3.884,-7.23 -3.247,-7.363 -2.554,-7.363C-1.654,-7.363 -0.906,-7.176 -0.314,-6.803C0.282,-6.43 0.757,-5.959 1.118,-5.383C1.477,-4.811 1.722,-4.182 1.861,-3.503C1.998,-2.825 2.055,-2.178 2.026,-1.566L-5.552,-1.566C-5.566,-1.122 -5.511,-0.699 -5.395,-0.302C-5.276,0.094 -5.088,0.447 -4.827,0.755C-4.565,1.061 -4.232,1.305 -3.827,1.49C-3.422,1.672 -2.947,1.764 -2.397,1.764C-1.692,1.764 -1.114,1.599 -0.665,1.273C-0.214,0.949 0.083,0.451 0.226,-0.214L1.871,-0.214C1.648,0.922 1.158,1.776 0.401,2.35" style="fill:rgb(252,252,252);fill-rule:nonzero;"/>
        </g>
        <g transform="matrix(5.95388,0,0,6.47209,321.051,535.389)">
            <path d="M0,-9.864L0,-7.729L0.038,-7.729C0.443,-8.553 0.939,-9.159 1.527,-9.55C2.115,-9.943 2.858,-10.124 3.759,-10.1L3.759,-8.337C3.094,-8.337 2.526,-8.244 2.057,-8.063C1.585,-7.88 1.207,-7.612 0.921,-7.259C0.633,-6.907 0.423,-6.48 0.292,-5.976C0.163,-5.473 0.097,-4.896 0.097,-4.244L0.097,0.26L-1.567,0.26L-1.567,-9.864L0,-9.864Z" style="fill:rgb(252,252,252);fill-rule:nonzero;"/>
        </g>
        <g transform="matrix(5.95388,0,0,6.47209,389.083,517.677)">
            <path d="M0,-4.15C-0.149,-4.504 -0.353,-4.807 -0.606,-5.063C-0.86,-5.316 -1.16,-5.518 -1.507,-5.669C-1.853,-5.818 -2.236,-5.895 -2.653,-5.895C-3.084,-5.895 -3.473,-5.818 -3.819,-5.669C-4.164,-5.518 -4.462,-5.312 -4.708,-5.05C-4.957,-4.791 -5.155,-4.486 -5.298,-4.14C-5.441,-3.793 -5.526,-3.425 -5.552,-3.034L0.266,-3.034C0.24,-3.425 0.151,-3.797 0,-4.15M0.401,2.35C-0.357,2.927 -1.307,3.213 -2.458,3.213C-3.267,3.213 -3.968,3.082 -4.563,2.82C-5.157,2.56 -5.654,2.193 -6.061,1.726C-6.466,1.255 -6.768,0.693 -6.97,0.04C-7.173,-0.613 -7.288,-1.324 -7.312,-2.093C-7.312,-2.865 -7.198,-3.57 -6.962,-4.208C-6.726,-4.849 -6.398,-5.405 -5.973,-5.872C-5.548,-6.344 -5.044,-6.708 -4.464,-6.97C-3.884,-7.23 -3.247,-7.363 -2.556,-7.363C-1.654,-7.363 -0.906,-7.176 -0.314,-6.803C0.28,-6.43 0.757,-5.959 1.116,-5.383C1.477,-4.811 1.722,-4.182 1.859,-3.503C1.998,-2.825 2.055,-2.178 2.026,-1.566L-5.552,-1.566C-5.566,-1.122 -5.511,-0.699 -5.395,-0.302C-5.276,0.094 -5.088,0.447 -4.827,0.755C-4.565,1.061 -4.232,1.305 -3.829,1.49C-3.424,1.672 -2.947,1.764 -2.397,1.764C-1.692,1.764 -1.116,1.599 -0.667,1.273C-0.214,0.949 0.083,0.451 0.226,-0.214L1.869,-0.214C1.648,0.922 1.158,1.776 0.401,2.35" style="fill:rgb(252,252,252);fill-rule:nonzero;"/>
        </g>
        <g transform="matrix(5.95388,0,0,6.47209,419.752,471.239)">
            <path d="M0,6.579C0.123,7.03 0.312,7.431 0.566,7.784C0.822,8.134 1.148,8.416 1.545,8.626C1.946,8.835 2.411,8.938 2.947,8.938C3.507,8.938 3.984,8.827 4.375,8.605C4.768,8.384 5.086,8.092 5.336,7.733C5.584,7.377 5.761,6.966 5.876,6.511C5.985,6.053 6.041,5.59 6.041,5.119C6.041,4.625 5.983,4.146 5.864,3.682C5.747,3.217 5.562,2.808 5.308,2.458C5.05,2.103 4.722,1.821 4.317,1.605C3.912,1.39 3.424,1.281 2.848,1.281C2.288,1.281 1.811,1.392 1.42,1.613C1.027,1.837 0.713,2.131 0.479,2.496C0.246,2.86 0.075,3.279 -0.03,3.751C-0.135,4.218 -0.187,4.702 -0.187,5.197C-0.187,5.668 -0.125,6.13 0,6.579M5.983,10.173L5.983,8.801L5.943,8.801C5.669,9.363 5.239,9.768 4.651,10.016C4.063,10.263 3.416,10.388 2.711,10.388C1.928,10.388 1.245,10.245 0.667,9.957C0.085,9.671 -0.399,9.284 -0.784,8.801C-1.17,8.319 -1.458,7.755 -1.656,7.119C-1.851,6.476 -1.948,5.797 -1.948,5.08C-1.948,4.361 -1.853,3.684 -1.666,3.046C-1.475,2.403 -1.188,1.847 -0.802,1.37C-0.419,0.892 0.066,0.514 0.645,0.234C1.227,-0.046 1.902,-0.187 2.673,-0.187C2.935,-0.187 3.213,-0.161 3.515,-0.109C3.815,-0.054 4.115,0.032 4.416,0.155C4.716,0.28 5,0.443 5.268,0.645C5.536,0.848 5.761,1.1 5.943,1.4L5.983,1.4L5.983,-3.809L7.647,-3.809L7.647,10.173L5.983,10.173Z" style="fill:rgb(252,252,252);fill-rule:nonzero;"/>
        </g>
        <g transform="matrix(5.95388,0,0,6.47209,558.843,490.241)">
            <path d="M0,0.705C-0.125,0.256 -0.314,-0.145 -0.568,-0.5C-0.822,-0.85 -1.148,-1.132 -1.547,-1.342C-1.944,-1.549 -2.411,-1.654 -2.947,-1.654C-3.509,-1.654 -3.984,-1.543 -4.377,-1.321C-4.77,-1.098 -5.088,-0.81 -5.336,-0.449C-5.584,-0.091 -5.763,0.316 -5.874,0.773C-5.985,1.231 -6.041,1.694 -6.041,2.165C-6.041,2.661 -5.983,3.138 -5.866,3.604C-5.749,4.067 -5.562,4.474 -5.306,4.828C-5.052,5.181 -4.724,5.465 -4.319,5.679C-3.914,5.896 -3.424,6.003 -2.85,6.003C-2.274,6.003 -1.795,5.892 -1.41,5.669C-1.025,5.447 -0.715,5.153 -0.479,4.788C-0.246,4.424 -0.077,4.007 0.03,3.535C0.133,3.064 0.185,2.582 0.185,2.087C0.185,1.616 0.125,1.156 0,0.705M-5.983,-6.746L-5.983,-1.517L-5.943,-1.517C-5.669,-2.077 -5.237,-2.486 -4.651,-2.74C-4.063,-2.996 -3.416,-3.122 -2.711,-3.122C-1.93,-3.122 -1.247,-2.979 -0.665,-2.691C-0.085,-2.403 0.399,-2.017 0.784,-1.527C1.168,-1.038 1.46,-0.472 1.654,0.167C1.849,0.806 1.95,1.485 1.95,2.204C1.95,2.923 1.853,3.6 1.664,4.24C1.475,4.879 1.189,5.439 0.804,5.914C0.417,6.39 -0.064,6.764 -0.647,7.04C-1.227,7.314 -1.902,7.451 -2.673,7.451C-2.921,7.451 -3.199,7.425 -3.505,7.375C-3.813,7.322 -4.115,7.236 -4.416,7.119C-4.716,7 -5,6.841 -5.268,6.639C-5.536,6.436 -5.761,6.186 -5.943,5.886L-5.983,5.886L-5.983,7.236L-7.647,7.236L-7.647,-6.746L-5.983,-6.746Z" style="fill:rgb(252,252,252);fill-rule:nonzero;"/>
        </g>
        <g transform="matrix(5.95388,0,0,6.47209,605.77,489.039)">
            <path d="M0,8.773C-0.195,9.269 -0.389,9.688 -0.578,10.026C-0.767,10.366 -0.975,10.644 -1.205,10.858C-1.432,11.074 -1.686,11.231 -1.968,11.329C-2.25,11.426 -2.572,11.476 -2.937,11.476C-3.132,11.476 -3.33,11.462 -3.525,11.436C-3.723,11.41 -3.91,11.366 -4.093,11.299L-4.093,9.772C-3.948,9.837 -3.783,9.893 -3.594,9.937C-3.404,9.984 -3.243,10.006 -3.114,10.006C-2.776,10.006 -2.49,9.925 -2.262,9.762C-2.033,9.597 -1.861,9.365 -1.742,9.067L-1.058,7.363L-5.072,-2.703L-3.191,-2.703L-0.236,5.582L-0.195,5.582L2.643,-2.703L4.405,-2.703L0,8.773Z" style="fill:rgb(252,252,252);fill-rule:nonzero;"/>
        </g>
        <g transform="matrix(5.95388,0,0,6.47209,732.779,469.792)">
            <path d="M0,-5.953C-0.586,-6.771 -1.148,-7.464 -1.696,-8.03C-2.238,-8.592 -2.764,-9.029 -3.269,-9.341C-3.66,-9.577 -4.049,-9.74 -4.44,-9.839C-4.829,-9.933 -5.219,-9.984 -5.608,-9.984C-7.28,-9.984 -8.664,-9.351 -9.752,-8.086C-10.844,-6.821 -11.387,-5.216 -11.387,-3.268C-11.387,-2.76 -11.349,-2.255 -11.273,-1.749C-11.192,-1.243 -11.097,-0.756 -10.981,-0.288C-10.707,0.568 -10.288,1.452 -9.726,2.369C-9.158,3.281 -8.41,4.286 -7.473,5.378L0,-5.953ZM-10.686,12.384C-9.675,11.679 -8.702,11.111 -7.768,10.662C-6.833,10.213 -5.918,9.87 -5.022,9.639C-4.555,9.522 -4.099,9.433 -3.65,9.377C-3.205,9.316 -2.744,9.288 -2.276,9.288L-1.607,9.288C-1.394,9.288 -1.19,9.308 -0.993,9.346C-0.06,9.425 0.913,9.588 1.928,9.844C2.939,10.096 4.182,10.513 5.667,11.099C5.86,11.178 5.997,11.236 6.071,11.274C6.152,11.313 6.229,11.331 6.307,11.331C6.422,11.411 6.633,11.506 6.95,11.623C7.258,11.742 8.019,12.052 9.228,12.557L11.037,13.258L12.792,14.02C13.607,14.33 14.288,14.574 14.832,14.749C15.376,14.924 15.787,15.011 16.061,15.011C16.448,15.011 16.905,14.818 17.433,14.425C17.958,14.038 18.494,13.514 19.036,12.852C19.193,12.696 19.33,12.527 19.447,12.354C19.562,12.179 19.681,12.016 19.798,11.858L20.672,12.384C20.595,12.461 20.547,12.527 20.527,12.59C20.505,12.646 20.478,12.696 20.44,12.733C20.398,12.813 20.329,12.92 20.235,13.053C20.136,13.19 19.973,13.434 19.737,13.782C19.232,14.485 18.899,14.955 18.744,15.186C18.589,15.422 18.474,15.597 18.394,15.71C18.315,15.791 18.251,15.885 18.188,16.002C18.132,16.121 18.025,16.296 17.87,16.528C17.286,17.386 16.923,17.924 16.79,18.135C16.653,18.349 16.546,18.516 16.466,18.631C16.43,18.669 16.391,18.711 16.353,18.748C16.311,18.786 16.272,18.844 16.236,18.923C15.998,18.885 15.767,18.824 15.531,18.748C15.299,18.669 15.068,18.611 14.832,18.573C14.095,18.379 13.323,18.117 12.524,17.787C11.726,17.457 10.727,17.017 9.516,16.471C6.17,14.955 3.501,13.863 1.517,13.202C-0.467,12.539 -2.319,12.171 -4.029,12.092C-4.224,12.052 -4.422,12.034 -4.615,12.034L-5.197,12.034C-6.988,12.034 -8.547,12.402 -9.869,13.142C-11.192,13.883 -12.477,15.092 -13.724,16.764C-13.881,16.995 -14.036,17.231 -14.192,17.465C-14.349,17.698 -14.504,17.93 -14.661,18.164L-15.535,17.581L-9.637,8.647C-10.805,7.167 -11.68,5.608 -12.264,3.974C-12.846,2.338 -13.14,0.624 -13.14,-1.167C-13.14,-4.243 -12.185,-6.918 -10.282,-9.196C-8.372,-11.474 -6.152,-12.611 -3.622,-12.611C-2.844,-12.611 -2.133,-12.504 -1.491,-12.29C-0.848,-12.075 -0.216,-11.736 0.407,-11.269C0.719,-11.035 1.041,-10.763 1.374,-10.451C1.704,-10.139 2.022,-9.79 2.335,-9.398C2.335,-9.44 2.353,-9.478 2.391,-9.516C2.391,-9.555 2.441,-9.663 2.54,-9.839C2.635,-10.014 2.897,-10.451 3.328,-11.15C3.406,-11.269 3.475,-11.386 3.531,-11.501C3.59,-11.62 3.658,-11.736 3.737,-11.853C3.932,-12.28 4.087,-12.691 4.204,-13.078C4.319,-13.465 4.379,-13.819 4.379,-14.131L4.379,-14.422C4.379,-14.5 4.357,-14.577 4.319,-14.655C4.281,-14.693 4.232,-14.752 4.176,-14.83C4.117,-14.907 4.049,-15.006 3.97,-15.125L4.319,-15.125C4.319,-15.161 4.331,-15.181 4.349,-15.181L4.905,-15.181C5.137,-15.181 5.548,-15.199 6.132,-15.237C6.327,-15.237 6.559,-15.262 6.833,-15.3C7.103,-15.336 7.552,-15.374 8.174,-15.417C7.943,-15.102 7.657,-14.706 7.326,-14.22C6.996,-13.733 6.46,-12.923 5.723,-11.793C5.642,-11.68 5.566,-11.561 5.491,-11.444C5.411,-11.325 5.334,-11.211 5.254,-11.094C5.254,-11.055 5.235,-11.013 5.197,-10.977C4.961,-10.588 4.7,-10.189 4.408,-9.778C4.117,-9.371 3.737,-8.836 3.271,-8.175C3.308,-8.135 3.346,-8.074 3.388,-8C3.427,-7.919 3.539,-7.756 3.737,-7.502C3.932,-7.25 4.418,-6.577 5.197,-5.486C6.633,-3.54 8.126,-2.097 9.665,-1.167C11.202,-0.232 12.884,0.237 14.715,0.237C16.973,0.237 19,-0.875 20.789,-3.094C22.579,-5.31 23.474,-7.8 23.474,-10.57C23.474,-12.866 22.716,-14.55 21.196,-15.618C19.681,-16.69 17.304,-17.226 14.071,-17.226C12.866,-17.226 11.299,-17.177 9.373,-17.078C7.445,-16.984 4.961,-16.817 1.928,-16.583C1.692,-16.583 1.537,-16.571 1.46,-16.553C1.38,-16.535 1.303,-16.523 1.225,-16.523C0.993,-16.523 0.399,-16.486 -0.554,-16.408C-1.509,-16.329 -4.403,-16.116 -9.228,-15.767C-9.693,-15.725 -10.145,-15.697 -10.57,-15.679C-10.999,-15.656 -11.428,-15.63 -11.855,-15.592C-12.322,-15.55 -12.82,-15.529 -13.345,-15.529L-15.009,-15.529C-16.838,-15.529 -18.359,-15.638 -19.564,-15.854C-20.771,-16.067 -21.705,-16.408 -22.368,-16.877L-20.146,-24.876L-19.155,-24.584C-19.31,-23.803 -19.429,-23.231 -19.508,-22.862C-19.584,-22.491 -19.622,-22.151 -19.622,-21.839L-19.622,-21.72C-19.622,-20.789 -19.215,-20.134 -18.398,-19.766C-17.58,-19.393 -16.139,-19.212 -14.075,-19.212C-12.477,-19.212 -10.58,-19.268 -8.38,-19.385C-6.182,-19.504 -3.467,-19.677 -0.236,-19.911C1.555,-20.066 3.096,-20.191 4.379,-20.292C5.667,-20.39 6.597,-20.459 7.181,-20.497C8.469,-20.572 9.722,-20.634 10.95,-20.67C12.173,-20.708 13.255,-20.727 14.19,-20.727C18.238,-20.727 21.266,-20.048 23.272,-18.686C25.277,-17.322 26.28,-15.262 26.28,-12.498C26.28,-11.988 26.238,-11.462 26.161,-10.918C26.083,-10.371 25.986,-9.827 25.869,-9.283C25.519,-8 24.995,-6.745 24.292,-5.516C23.591,-4.287 22.755,-3.171 21.782,-2.16C20.458,-0.718 19,0.342 17.402,1.023C15.805,1.708 14.034,2.046 12.086,2.046C10.92,2.046 9.871,1.929 8.936,1.696C7.999,1.46 7.085,1.073 6.19,0.529C5.372,-0.019 4.544,-0.718 3.707,-1.574C2.871,-2.428 1.928,-3.501 0.874,-4.787L-10.686,12.384Z" style="fill:rgb(252,252,252);fill-rule:nonzero;"/>
        </g>
        <g transform="matrix(5.95388,0,0,6.47209,883.894,537.312)">
            <path d="M0,-10.413L0,-8.159L0.04,-8.159C0.467,-9.027 0.991,-9.67 1.612,-10.081C2.232,-10.494 3.016,-10.687 3.966,-10.661L3.966,-8.801C3.263,-8.801 2.663,-8.703 2.168,-8.509C1.672,-8.316 1.273,-8.034 0.971,-7.661C0.667,-7.291 0.447,-6.841 0.308,-6.31C0.169,-5.78 0.103,-5.167 0.103,-4.479L0.103,0.274L-1.656,0.274L-1.656,-10.413L0,-10.413Z" style="fill:rgb(252,252,252);fill-rule:nonzero;"/>
        </g>
        <g transform="matrix(5.95388,0,0,6.47209,-1672.66,-7504.67)">
            <path d="M436.543,1242.84L434.786,1242.84L434.786,1232.15L436.543,1232.15L436.543,1242.84ZM434.788,1228.08L436.545,1228.08L436.545,1230.23L434.788,1230.23L434.788,1228.08Z" style="fill:rgb(252,252,252);fill-rule:nonzero;"/>
        </g>
        <g transform="matrix(5.95388,0,0,6.47209,952.547,537.48)">
            <path d="M0,-10.439L0,-8.743L0.042,-8.743C0.771,-10.038 1.93,-10.687 3.515,-10.687C4.214,-10.687 4.802,-10.588 5.27,-10.397C5.737,-10.203 6.118,-9.935 6.406,-9.591C6.698,-9.244 6.899,-8.835 7.018,-8.36C7.133,-7.885 7.193,-7.359 7.193,-6.781L7.193,0.248L5.435,0.248L5.435,-6.988C5.435,-7.647 5.241,-8.171 4.859,-8.555C4.472,-8.942 3.942,-9.136 3.267,-9.136C2.728,-9.136 2.264,-9.053 1.871,-8.888C1.479,-8.723 1.15,-8.487 0.886,-8.185C0.628,-7.881 0.429,-7.526 0.298,-7.121C0.169,-6.714 0.103,-6.269 0.103,-5.788L0.103,0.248L-1.652,0.248L-1.652,-10.439L0,-10.439Z" style="fill:rgb(252,252,252);fill-rule:nonzero;"/>
        </g>
        <g transform="matrix(5.95388,0,0,6.47209,1049.15,526.891)">
            <path d="M0,-6.94C-0.441,-7.315 -1.035,-7.5 -1.779,-7.5C-2.413,-7.5 -2.943,-7.381 -3.37,-7.147C-3.797,-6.914 -4.138,-6.604 -4.395,-6.219C-4.649,-5.834 -4.829,-5.389 -4.939,-4.883C-5.052,-4.382 -5.107,-3.86 -5.107,-3.324C-5.107,-2.829 -5.048,-2.347 -4.931,-1.878C-4.812,-1.41 -4.631,-0.991 -4.383,-0.629C-4.136,-0.262 -3.813,0.032 -3.41,0.252C-3.014,0.471 -2.538,0.582 -1.984,0.582C-1.116,0.582 -0.439,0.354 0.052,-0.101C0.54,-0.556 0.84,-1.197 0.949,-2.025L2.748,-2.025C2.554,-0.701 2.061,0.32 1.269,1.035C0.477,1.752 -0.6,2.111 -1.964,2.111C-2.776,2.111 -3.497,1.982 -4.124,1.718C-4.752,1.456 -5.274,1.083 -5.695,0.602C-6.116,0.121 -6.432,-0.456 -6.646,-1.124C-6.859,-1.791 -6.966,-2.526 -6.966,-3.324C-6.966,-4.124 -6.863,-4.869 -6.656,-5.568C-6.45,-6.263 -6.136,-6.867 -5.715,-7.387C-5.296,-7.903 -4.77,-8.31 -4.136,-8.608C-3.501,-8.902 -2.764,-9.051 -1.924,-9.051C-1.317,-9.051 -0.749,-8.979 -0.22,-8.831C0.31,-8.688 0.782,-8.463 1.188,-8.159C1.595,-7.857 1.93,-7.476 2.188,-7.014C2.452,-6.551 2.619,-6.003 2.687,-5.373L0.868,-5.373C0.729,-6.046 0.441,-6.567 0,-6.94" style="fill:rgb(252,252,252);fill-rule:nonzero;"/>
        </g>
        <g transform="matrix(5.95388,0,0,6.47209,1119.7,518.618)">
            <path d="M0,-4.382C-0.159,-4.755 -0.373,-5.073 -0.641,-5.343C-0.909,-5.613 -1.225,-5.826 -1.591,-5.985C-1.954,-6.141 -2.359,-6.221 -2.8,-6.221C-3.255,-6.221 -3.664,-6.141 -4.029,-5.985C-4.393,-5.826 -4.708,-5.607 -4.972,-5.333C-5.231,-5.057 -5.439,-4.736 -5.59,-4.37C-5.741,-4.007 -5.83,-3.618 -5.86,-3.204L0.28,-3.204C0.252,-3.618 0.159,-4.009 0,-4.382M0.423,2.481C-0.375,3.087 -1.382,3.39 -2.593,3.39C-3.449,3.39 -4.186,3.251 -4.814,2.977C-5.441,2.701 -5.969,2.314 -6.396,1.818C-6.823,1.323 -7.141,0.731 -7.359,0.042C-7.572,-0.647 -7.689,-1.399 -7.719,-2.21C-7.719,-3.024 -7.594,-3.767 -7.347,-4.444C-7.099,-5.119 -6.75,-5.705 -6.303,-6.201C-5.856,-6.696 -5.326,-7.083 -4.712,-7.357C-4.097,-7.633 -3.427,-7.772 -2.695,-7.772C-1.744,-7.772 -0.957,-7.577 -0.328,-7.182C0.296,-6.789 0.798,-6.29 1.178,-5.685C1.557,-5.077 1.819,-4.416 1.964,-3.701C2.107,-2.984 2.168,-2.299 2.139,-1.654L-5.86,-1.654C-5.874,-1.185 -5.816,-0.74 -5.693,-0.321C-5.568,0.1 -5.368,0.471 -5.094,0.797C-4.818,1.119 -4.466,1.375 -4.039,1.571C-3.612,1.762 -3.108,1.861 -2.532,1.861C-1.787,1.861 -1.176,1.687 -0.701,1.341C-0.228,0.998 0.087,0.475 0.24,-0.226L1.974,-0.226C1.742,0.97 1.223,1.873 0.423,2.481" style="fill:rgb(252,252,252);fill-rule:nonzero;"/>
        </g>
        <g transform="matrix(5.95388,0,0,6.47209,1151.27,485.235)">
            <path d="M0,5.932C0.165,6.202 0.381,6.415 0.649,6.575C0.921,6.734 1.223,6.847 1.559,6.915C1.898,6.984 2.246,7.02 2.603,7.02C2.879,7.02 3.169,6.996 3.471,6.955C3.775,6.915 4.055,6.84 4.309,6.728C4.565,6.617 4.772,6.456 4.939,6.242C5.105,6.029 5.187,5.757 5.187,5.428C5.187,4.971 5.014,4.629 4.671,4.391C4.325,4.159 3.896,3.968 3.38,3.825C2.861,3.68 2.3,3.549 1.692,3.432C1.088,3.313 0.524,3.15 0.008,2.937C-0.508,2.723 -0.937,2.423 -1.283,2.036C-1.626,1.651 -1.799,1.114 -1.799,0.425C-1.799,-0.111 -1.678,-0.573 -1.438,-0.959C-1.197,-1.346 -0.884,-1.66 -0.508,-1.9C-0.129,-2.142 0.3,-2.321 0.774,-2.438C1.249,-2.553 1.72,-2.615 2.188,-2.615C2.796,-2.615 3.354,-2.563 3.864,-2.46C4.373,-2.355 4.825,-2.176 5.219,-1.92C5.612,-1.666 5.922,-1.324 6.16,-0.887C6.392,-0.454 6.531,0.088 6.571,0.735L4.814,0.735C4.786,0.39 4.698,0.104 4.547,-0.123C4.393,-0.351 4.2,-0.532 3.968,-0.671C3.735,-0.81 3.475,-0.909 3.191,-0.971C2.909,-1.032 2.625,-1.064 2.335,-1.064C2.073,-1.064 1.807,-1.042 1.539,-1.002C1.271,-0.959 1.027,-0.887 0.804,-0.784C0.586,-0.679 0.407,-0.544 0.268,-0.371C0.129,-0.198 0.06,0.026 0.06,0.302C0.06,0.602 0.167,0.854 0.381,1.057C0.594,1.255 0.868,1.42 1.197,1.553C1.529,1.682 1.9,1.79 2.313,1.881C2.728,1.974 3.14,2.066 3.555,2.159C3.993,2.258 4.426,2.373 4.847,2.512C5.266,2.651 5.636,2.832 5.963,3.059C6.285,3.289 6.547,3.573 6.748,3.918C6.946,4.262 7.046,4.689 7.046,5.199C7.046,5.847 6.911,6.385 6.644,6.812C6.376,7.237 6.023,7.584 5.59,7.844C5.155,8.106 4.665,8.287 4.124,8.392C3.578,8.494 3.036,8.547 2.5,8.547C1.906,8.547 1.344,8.486 0.804,8.363C0.268,8.239 -0.207,8.033 -0.62,7.751C-1.035,7.469 -1.364,7.096 -1.612,6.635C-1.859,6.174 -1.998,5.612 -2.026,4.951L-0.272,4.951C-0.256,5.338 -0.167,5.664 0,5.932" style="fill:rgb(252,252,252);fill-rule:nonzero;"/>
        </g>
        <g transform="matrix(5.95388,0,0,6.47209,1212.8,485.235)">
            <path d="M0,5.932C0.165,6.202 0.381,6.415 0.649,6.575C0.921,6.734 1.223,6.847 1.559,6.915C1.898,6.984 2.246,7.02 2.603,7.02C2.879,7.02 3.169,6.996 3.473,6.955C3.775,6.915 4.055,6.84 4.309,6.728C4.565,6.617 4.772,6.456 4.939,6.242C5.105,6.029 5.187,5.757 5.187,5.428C5.187,4.971 5.014,4.629 4.671,4.391C4.325,4.159 3.896,3.968 3.38,3.825C2.86,3.68 2.302,3.549 1.692,3.432C1.088,3.313 0.526,3.15 0.008,2.937C-0.508,2.723 -0.937,2.423 -1.283,2.036C-1.626,1.651 -1.799,1.114 -1.799,0.425C-1.799,-0.111 -1.678,-0.573 -1.438,-0.959C-1.197,-1.346 -0.884,-1.66 -0.508,-1.9C-0.129,-2.142 0.3,-2.321 0.774,-2.438C1.249,-2.553 1.72,-2.615 2.188,-2.615C2.798,-2.615 3.354,-2.563 3.864,-2.46C4.373,-2.355 4.824,-2.176 5.219,-1.92C5.612,-1.666 5.922,-1.324 6.16,-0.887C6.392,-0.454 6.531,0.088 6.571,0.735L4.816,0.735C4.786,0.39 4.698,0.104 4.547,-0.123C4.395,-0.351 4.2,-0.532 3.968,-0.671C3.735,-0.81 3.475,-0.909 3.191,-0.971C2.909,-1.032 2.625,-1.064 2.337,-1.064C2.073,-1.064 1.807,-1.042 1.541,-1.002C1.271,-0.959 1.027,-0.887 0.804,-0.784C0.586,-0.679 0.407,-0.544 0.268,-0.371C0.129,-0.198 0.06,0.026 0.06,0.302C0.06,0.602 0.167,0.854 0.381,1.057C0.594,1.255 0.868,1.42 1.197,1.553C1.529,1.682 1.9,1.79 2.313,1.881C2.728,1.974 3.14,2.066 3.555,2.159C3.993,2.258 4.426,2.373 4.847,2.512C5.266,2.651 5.636,2.832 5.963,3.059C6.287,3.289 6.549,3.573 6.748,3.918C6.946,4.262 7.048,4.689 7.048,5.199C7.048,5.847 6.911,6.385 6.643,6.812C6.376,7.237 6.023,7.584 5.59,7.844C5.157,8.106 4.665,8.287 4.124,8.392C3.578,8.494 3.036,8.547 2.5,8.547C1.906,8.547 1.344,8.486 0.804,8.363C0.268,8.239 -0.207,8.033 -0.62,7.751C-1.035,7.469 -1.364,7.096 -1.612,6.635C-1.859,6.174 -1.998,5.612 -2.027,4.951L-0.27,4.951C-0.256,5.338 -0.167,5.664 0,5.932" style="fill:rgb(252,252,252);fill-rule:nonzero;"/>
        </g>
        <g transform="matrix(5.95388,0,0,6.47209,1649.34,511.025)">
            <path d="M0,-12.013C0,-7.996 -0.008,-4.294 0.026,-0.591C0.028,-0.388 0.389,-0.015 0.588,-0.013C1.821,-0.001 3.072,0.047 4.283,-0.138C6.656,-0.503 8.04,-1.862 8.442,-4.252C8.869,-6.778 8.763,-9.223 6.426,-10.933C6.005,-11.242 5.487,-11.532 4.984,-11.592C3.378,-11.789 1.759,-11.874 0,-12.013M-6.045,-6.026C-6.045,-9.237 -6.021,-12.448 -6.065,-15.657C-6.075,-16.461 -5.832,-16.693 -5.042,-16.672C-1.634,-16.59 1.781,-16.646 5.187,-16.497C10.817,-16.249 13.748,-13.49 14.441,-7.904C14.723,-5.629 14.584,-3.365 13.964,-1.147C13.09,1.969 11.021,3.865 7.846,4.312C5.773,4.604 3.65,4.572 1.547,4.618C-0.56,4.664 -2.669,4.58 -4.776,4.648C-5.747,4.68 -6.106,4.479 -6.075,3.401C-5.993,0.261 -6.045,-2.884 -6.045,-6.026" style="fill:rgb(252,252,252);fill-rule:nonzero;"/>
        </g>
        <g transform="matrix(5.95388,0,0,6.47209,1276.24,541.26)">
            <path d="M0,-21.456C4.818,-21.323 9.619,-21.484 14.349,-20.973C18.784,-20.491 21.057,-17.663 21.206,-13.187C21.349,-8.94 21.244,-4.686 21.244,-0.436C21.244,-0.345 21.19,-0.252 21.141,-0.105L15.43,-0.105C15.412,-0.444 15.38,-0.796 15.378,-1.147C15.354,-4.392 15.334,-7.637 15.314,-10.882C15.314,-10.983 15.307,-11.084 15.299,-11.183C14.941,-15.012 13.69,-16.152 9.852,-16.152C8.882,-16.152 7.907,-16.108 6.94,-16.166C6.174,-16.212 5.977,-15.933 5.981,-15.193C6.011,-10.542 5.969,-5.889 6.019,-1.237C6.029,-0.264 5.755,0.028 4.79,-0.023C3.225,-0.101 1.652,-0.045 0,-0.045L0,-21.456Z" style="fill:rgb(252,252,252);fill-rule:nonzero;"/>
        </g>
        <g transform="matrix(5.95388,0,0,6.47209,1876.15,514.774)">
            <path d="M0,-12.85C-0.079,-12.85 -0.157,-12.848 -0.236,-12.846C-1.398,-9.752 -2.56,-6.658 -3.753,-3.483L3.414,-3.483C2.252,-6.67 1.126,-9.76 0,-12.85M12.358,4.041C10.308,4.041 8.346,4.059 6.382,4.019C6.184,4.015 5.906,3.706 5.816,3.481C5.493,2.675 5.189,1.855 4.968,1.019C4.816,0.449 4.518,0.3 3.97,0.306C1.193,0.326 -1.585,0.328 -4.363,0.302C-4.929,0.298 -5.197,0.499 -5.37,1.027C-5.695,2.008 -5.826,3.35 -6.525,3.827C-7.266,4.335 -8.577,4.021 -9.639,4.045C-10.495,4.063 -11.353,4.049 -12.405,4.049C-11.7,2.236 -11.065,0.598 -10.421,-1.036C-8.412,-6.134 -6.392,-11.228 -4.395,-16.333C-4.174,-16.893 -3.916,-17.185 -3.249,-17.173C-1.076,-17.131 1.1,-17.135 3.275,-17.171C3.888,-17.181 4.156,-16.937 4.369,-16.399C6.962,-9.843 9.574,-3.294 12.177,3.259C12.258,3.465 12.28,3.694 12.358,4.041" style="fill:rgb(252,252,252);fill-rule:nonzero;"/>
        </g>
        <g transform="matrix(5.95388,0,0,6.47209,1475.73,435.289)">
            <path d="M0,11.381C0.906,8.345 1.813,5.308 2.717,2.272C3.356,0.126 3.972,-2.027 4.649,-4.158C4.746,-4.468 5.113,-4.908 5.368,-4.918C7.199,-4.982 9.037,-4.952 11.043,-4.952C10.529,-3.318 10.064,-1.805 9.574,-0.299C7.868,4.943 6.138,10.178 4.456,15.428C4.234,16.119 3.928,16.363 3.195,16.346C0.888,16.298 -1.422,16.322 -3.731,16.336C-4.234,16.338 -4.575,16.288 -4.764,15.694C-6.903,9.01 -9.075,2.338 -11.23,-4.338C-11.279,-4.487 -11.259,-4.656 -11.281,-4.946C-9.228,-4.946 -7.232,-4.974 -5.24,-4.905C-5.018,-4.9 -4.72,-4.372 -4.621,-4.037C-3.215,0.807 -1.837,5.66 -0.451,10.509C-0.369,10.795 -0.274,11.079 -0.185,11.361C-0.125,11.369 -0.062,11.375 0,11.381" style="fill:rgb(252,252,252);fill-rule:nonzero;"/>
        </g>
        <g transform="matrix(5.95388,0,0,6.47209,1787.55,403.1)">
            <path d="M0,21.299C-1.801,21.299 -3.604,21.325 -5.403,21.263C-5.594,21.257 -5.926,20.743 -5.93,20.461C-5.971,17.818 -5.955,15.173 -5.955,12.53C-5.955,8.683 -5.938,4.835 -5.969,0.988C-5.975,0.256 -5.787,-0.026 -5.018,0.003C-3.545,0.055 -2.071,0.029 -0.598,0.013C-0.113,0.007 0.147,0.132 0.145,0.679C0.125,7.47 0.117,14.263 0.103,21.053C0.103,21.083 0.079,21.114 0,21.299" style="fill:rgb(252,252,252);fill-rule:nonzero;"/>
        </g>
        <g transform="matrix(5.95388,0,0,6.47209,1556.04,402.99)">
            <path d="M0,21.313L0,17.131C0,11.783 0.018,6.433 -0.018,1.084C-0.024,0.248 0.21,-0.022 1.048,0.017C2.415,0.081 3.789,0.057 5.161,0.025C5.793,0.009 6.049,0.2 6.047,0.875C6.029,7.428 6.041,13.98 6.013,20.533C6.013,20.793 5.701,21.273 5.522,21.279C3.727,21.335 1.928,21.313 0,21.313" style="fill:rgb(252,252,252);fill-rule:nonzero;"/>
        </g>
    </g>
</svg>
