<?xml version="1.0" encoding="UTF-8" standalone="no"?>
<!DOCTYPE svg PUBLIC "-//W3C//DTD SVG 1.1//EN" "http://www.w3.org/Graphics/SVG/1.1/DTD/svg11.dtd">
<svg width="100%" height="100%" viewBox="0 0 2148 442" version="1.1" xmlns="http://www.w3.org/2000/svg" xmlns:xlink="http://www.w3.org/1999/xlink" xml:space="preserve" xmlns:serif="http://www.serif.com/" style="fill-rule:evenodd;clip-rule:evenodd;stroke-linejoin:round;stroke-miterlimit:2;">
    <g id="Artboard2" transform="matrix(1,0,0,1,-925.996,1.07706)">
        <rect x="925.996" y="-1.077" width="2147.4" height="441.398" style="fill:none;"/>
        <clipPath id="_clip1">
            <rect x="925.996" y="-1.077" width="2147.4" height="441.398"/>
        </clipPath>
        <g clip-path="url(#_clip1)">
            <g id="Artboard1" transform="matrix(1,0,0,1,-238.754,-352.739)">
                <rect x="239.75" y="353.662" width="3070.53" height="442.662" style="fill:none;"/>
                <g transform="matrix(9.30343,0,0,9.30343,1391.33,603.341)">
                    <path d="M0,-5.953C-0.586,-6.771 -1.148,-7.464 -1.696,-8.03C-2.238,-8.592 -2.764,-9.029 -3.269,-9.341C-3.66,-9.577 -4.049,-9.74 -4.44,-9.839C-4.829,-9.933 -5.219,-9.984 -5.608,-9.984C-7.28,-9.984 -8.664,-9.351 -9.752,-8.086C-10.844,-6.821 -11.387,-5.216 -11.387,-3.268C-11.387,-2.76 -11.349,-2.255 -11.273,-1.749C-11.192,-1.243 -11.097,-0.756 -10.981,-0.288C-10.707,0.568 -10.288,1.452 -9.726,2.369C-9.158,3.281 -8.41,4.286 -7.473,5.378L0,-5.953ZM-10.686,12.384C-9.675,11.679 -8.702,11.111 -7.768,10.662C-6.833,10.213 -5.918,9.87 -5.022,9.639C-4.555,9.522 -4.099,9.433 -3.65,9.377C-3.205,9.316 -2.744,9.288 -2.276,9.288L-1.607,9.288C-1.394,9.288 -1.19,9.308 -0.993,9.346C-0.06,9.425 0.913,9.588 1.928,9.844C2.939,10.096 4.182,10.513 5.667,11.099C5.86,11.178 5.997,11.236 6.071,11.274C6.152,11.313 6.229,11.331 6.307,11.331C6.422,11.411 6.633,11.506 6.95,11.623C7.258,11.742 8.019,12.052 9.228,12.557L11.037,13.258L12.792,14.02C13.607,14.33 14.288,14.574 14.832,14.749C15.376,14.924 15.787,15.011 16.061,15.011C16.448,15.011 16.905,14.818 17.433,14.425C17.958,14.038 18.494,13.514 19.036,12.852C19.193,12.696 19.33,12.527 19.447,12.354C19.562,12.179 19.681,12.016 19.798,11.858L20.672,12.384C20.595,12.461 20.547,12.527 20.527,12.59C20.505,12.646 20.478,12.696 20.44,12.733C20.398,12.813 20.329,12.92 20.235,13.053C20.136,13.19 19.973,13.434 19.737,13.782C19.232,14.485 18.899,14.955 18.744,15.186C18.589,15.422 18.474,15.597 18.394,15.71C18.315,15.791 18.251,15.885 18.188,16.002C18.132,16.121 18.025,16.296 17.87,16.528C17.286,17.386 16.923,17.924 16.79,18.135C16.653,18.349 16.546,18.516 16.466,18.631C16.43,18.669 16.391,18.711 16.353,18.748C16.311,18.786 16.272,18.844 16.236,18.923C15.998,18.885 15.767,18.824 15.531,18.748C15.299,18.669 15.068,18.611 14.832,18.573C14.095,18.379 13.323,18.117 12.524,17.787C11.726,17.457 10.727,17.017 9.516,16.471C6.17,14.955 3.501,13.863 1.517,13.202C-0.467,12.539 -2.319,12.171 -4.029,12.092C-4.224,12.052 -4.422,12.034 -4.615,12.034L-5.197,12.034C-6.988,12.034 -8.547,12.402 -9.869,13.142C-11.192,13.883 -12.477,15.092 -13.724,16.764C-13.881,16.995 -14.036,17.231 -14.192,17.465C-14.349,17.698 -14.504,17.93 -14.661,18.164L-15.535,17.581L-9.637,8.647C-10.805,7.167 -11.68,5.608 -12.264,3.974C-12.846,2.338 -13.14,0.624 -13.14,-1.167C-13.14,-4.243 -12.185,-6.918 -10.282,-9.196C-8.372,-11.474 -6.152,-12.611 -3.622,-12.611C-2.844,-12.611 -2.133,-12.504 -1.491,-12.29C-0.848,-12.075 -0.216,-11.736 0.407,-11.269C0.719,-11.035 1.041,-10.763 1.374,-10.451C1.704,-10.139 2.022,-9.79 2.335,-9.398C2.335,-9.44 2.353,-9.478 2.391,-9.516C2.391,-9.555 2.441,-9.663 2.54,-9.839C2.635,-10.014 2.897,-10.451 3.328,-11.15C3.406,-11.269 3.475,-11.386 3.531,-11.501C3.59,-11.62 3.658,-11.736 3.737,-11.853C3.932,-12.28 4.087,-12.691 4.204,-13.078C4.319,-13.465 4.379,-13.819 4.379,-14.131L4.379,-14.422C4.379,-14.5 4.357,-14.577 4.319,-14.655C4.281,-14.693 4.232,-14.752 4.176,-14.83C4.117,-14.907 4.049,-15.006 3.97,-15.125L4.319,-15.125C4.319,-15.161 4.331,-15.181 4.349,-15.181L4.905,-15.181C5.137,-15.181 5.548,-15.199 6.132,-15.237C6.327,-15.237 6.559,-15.262 6.833,-15.3C7.103,-15.336 7.552,-15.374 8.174,-15.417C7.943,-15.102 7.657,-14.706 7.326,-14.22C6.996,-13.733 6.46,-12.923 5.723,-11.793C5.642,-11.68 5.566,-11.561 5.491,-11.444C5.411,-11.325 5.334,-11.211 5.254,-11.094C5.254,-11.055 5.235,-11.013 5.197,-10.977C4.961,-10.588 4.7,-10.189 4.408,-9.778C4.117,-9.371 3.737,-8.836 3.271,-8.175C3.308,-8.135 3.346,-8.074 3.388,-8C3.427,-7.919 3.539,-7.756 3.737,-7.502C3.932,-7.25 4.418,-6.577 5.197,-5.486C6.633,-3.54 8.126,-2.097 9.665,-1.167C11.202,-0.232 12.884,0.237 14.715,0.237C16.973,0.237 19,-0.875 20.789,-3.094C22.579,-5.31 23.474,-7.8 23.474,-10.57C23.474,-12.866 22.716,-14.55 21.196,-15.618C19.681,-16.69 17.304,-17.226 14.071,-17.226C12.866,-17.226 11.299,-17.177 9.373,-17.078C7.445,-16.984 4.961,-16.817 1.928,-16.583C1.692,-16.583 1.537,-16.571 1.46,-16.553C1.38,-16.535 1.303,-16.523 1.225,-16.523C0.993,-16.523 0.399,-16.486 -0.554,-16.408C-1.509,-16.329 -4.403,-16.116 -9.228,-15.767C-9.693,-15.725 -10.145,-15.697 -10.57,-15.679C-10.999,-15.656 -11.428,-15.63 -11.855,-15.592C-12.322,-15.55 -12.82,-15.529 -13.345,-15.529L-15.009,-15.529C-16.838,-15.529 -18.359,-15.638 -19.564,-15.854C-20.771,-16.067 -21.705,-16.408 -22.368,-16.877L-20.146,-24.876L-19.155,-24.584C-19.31,-23.803 -19.429,-23.231 -19.508,-22.862C-19.584,-22.491 -19.622,-22.151 -19.622,-21.839L-19.622,-21.72C-19.622,-20.789 -19.215,-20.134 -18.398,-19.766C-17.58,-19.393 -16.139,-19.212 -14.075,-19.212C-12.477,-19.212 -10.58,-19.268 -8.38,-19.385C-6.182,-19.504 -3.467,-19.677 -0.236,-19.911C1.555,-20.066 3.096,-20.191 4.379,-20.292C5.667,-20.39 6.597,-20.459 7.181,-20.497C8.469,-20.572 9.722,-20.634 10.95,-20.67C12.173,-20.708 13.255,-20.727 14.19,-20.727C18.238,-20.727 21.266,-20.048 23.272,-18.686C25.277,-17.322 26.28,-15.262 26.28,-12.498C26.28,-11.988 26.238,-11.462 26.161,-10.918C26.083,-10.371 25.986,-9.827 25.869,-9.283C25.519,-8 24.995,-6.745 24.292,-5.516C23.591,-4.287 22.755,-3.171 21.782,-2.16C20.458,-0.718 19,0.342 17.402,1.023C15.805,1.708 14.034,2.046 12.086,2.046C10.92,2.046 9.871,1.929 8.936,1.696C7.999,1.46 7.085,1.073 6.19,0.529C5.372,-0.019 4.544,-0.718 3.707,-1.574C2.871,-2.428 1.928,-3.501 0.874,-4.787L-10.686,12.384Z" style="fill:white;fill-rule:nonzero;"/>
                </g>
                <g transform="matrix(9.30343,0,0,9.30343,1627.46,700.399)">
                    <path d="M0,-10.413L0,-8.159L0.04,-8.159C0.467,-9.027 0.991,-9.67 1.612,-10.081C2.232,-10.494 3.016,-10.687 3.966,-10.661L3.966,-8.801C3.263,-8.801 2.663,-8.703 2.168,-8.509C1.672,-8.316 1.273,-8.034 0.971,-7.661C0.667,-7.291 0.447,-6.841 0.308,-6.31C0.169,-5.78 0.103,-5.167 0.103,-4.479L0.103,0.274L-1.656,0.274L-1.656,-10.413L0,-10.413Z" style="fill:white;fill-rule:nonzero;"/>
                </g>
                <g transform="matrix(9.30343,0,0,9.30343,-2367.36,-10859.7)">
                    <path d="M436.543,1242.84L434.786,1242.84L434.786,1232.15L436.543,1232.15L436.543,1242.84ZM434.788,1228.08L436.545,1228.08L436.545,1230.23L434.788,1230.23L434.788,1228.08Z" style="fill:white;fill-rule:nonzero;"/>
                </g>
                <g transform="matrix(9.30343,0,0,9.30343,1734.73,700.641)">
                    <path d="M0,-10.439L0,-8.743L0.042,-8.743C0.771,-10.038 1.93,-10.687 3.515,-10.687C4.214,-10.687 4.802,-10.588 5.27,-10.397C5.737,-10.203 6.118,-9.935 6.406,-9.591C6.698,-9.244 6.899,-8.835 7.018,-8.36C7.133,-7.885 7.193,-7.359 7.193,-6.781L7.193,0.248L5.435,0.248L5.435,-6.988C5.435,-7.647 5.241,-8.171 4.859,-8.555C4.472,-8.942 3.942,-9.136 3.267,-9.136C2.728,-9.136 2.264,-9.053 1.871,-8.888C1.479,-8.723 1.15,-8.487 0.886,-8.185C0.628,-7.881 0.429,-7.526 0.298,-7.121C0.169,-6.714 0.103,-6.269 0.103,-5.788L0.103,0.248L-1.652,0.248L-1.652,-10.439L0,-10.439Z" style="fill:white;fill-rule:nonzero;"/>
                </g>
                <g transform="matrix(9.30343,0,0,9.30343,1885.68,685.42)">
                    <path d="M0,-6.94C-0.441,-7.315 -1.035,-7.5 -1.779,-7.5C-2.413,-7.5 -2.943,-7.381 -3.37,-7.147C-3.797,-6.914 -4.138,-6.604 -4.395,-6.219C-4.649,-5.834 -4.829,-5.389 -4.939,-4.883C-5.052,-4.382 -5.107,-3.86 -5.107,-3.324C-5.107,-2.829 -5.048,-2.347 -4.931,-1.878C-4.812,-1.41 -4.631,-0.991 -4.383,-0.629C-4.136,-0.262 -3.813,0.032 -3.41,0.252C-3.014,0.471 -2.538,0.582 -1.984,0.582C-1.116,0.582 -0.439,0.354 0.052,-0.101C0.54,-0.556 0.84,-1.197 0.949,-2.025L2.748,-2.025C2.554,-0.701 2.061,0.32 1.269,1.035C0.477,1.752 -0.6,2.111 -1.964,2.111C-2.776,2.111 -3.497,1.982 -4.124,1.718C-4.752,1.456 -5.274,1.083 -5.695,0.602C-6.116,0.121 -6.432,-0.456 -6.646,-1.124C-6.859,-1.791 -6.966,-2.526 -6.966,-3.324C-6.966,-4.124 -6.863,-4.869 -6.656,-5.568C-6.45,-6.263 -6.136,-6.867 -5.715,-7.387C-5.296,-7.903 -4.77,-8.31 -4.136,-8.608C-3.501,-8.902 -2.764,-9.051 -1.924,-9.051C-1.317,-9.051 -0.749,-8.979 -0.22,-8.831C0.31,-8.688 0.782,-8.463 1.188,-8.159C1.595,-7.857 1.93,-7.476 2.188,-7.014C2.452,-6.551 2.619,-6.003 2.687,-5.373L0.868,-5.373C0.729,-6.046 0.441,-6.567 0,-6.94" style="fill:white;fill-rule:nonzero;"/>
                </g>
                <g transform="matrix(9.30343,0,0,9.30343,1995.92,673.526)">
                    <path d="M0,-4.382C-0.159,-4.755 -0.373,-5.073 -0.641,-5.343C-0.909,-5.613 -1.225,-5.826 -1.591,-5.985C-1.954,-6.141 -2.359,-6.221 -2.8,-6.221C-3.255,-6.221 -3.664,-6.141 -4.029,-5.985C-4.393,-5.826 -4.708,-5.607 -4.972,-5.333C-5.231,-5.057 -5.439,-4.736 -5.59,-4.37C-5.741,-4.007 -5.83,-3.618 -5.86,-3.204L0.28,-3.204C0.252,-3.618 0.159,-4.009 0,-4.382M0.423,2.481C-0.375,3.087 -1.382,3.39 -2.593,3.39C-3.449,3.39 -4.186,3.251 -4.814,2.977C-5.441,2.701 -5.969,2.314 -6.396,1.818C-6.823,1.323 -7.141,0.731 -7.359,0.042C-7.572,-0.647 -7.689,-1.399 -7.719,-2.21C-7.719,-3.024 -7.594,-3.767 -7.347,-4.444C-7.099,-5.119 -6.75,-5.705 -6.303,-6.201C-5.856,-6.696 -5.326,-7.083 -4.712,-7.357C-4.097,-7.633 -3.427,-7.772 -2.695,-7.772C-1.744,-7.772 -0.957,-7.577 -0.328,-7.182C0.296,-6.789 0.798,-6.29 1.178,-5.685C1.557,-5.077 1.819,-4.416 1.964,-3.701C2.107,-2.984 2.168,-2.299 2.139,-1.654L-5.86,-1.654C-5.874,-1.185 -5.816,-0.74 -5.693,-0.321C-5.568,0.1 -5.368,0.471 -5.094,0.797C-4.818,1.119 -4.466,1.375 -4.039,1.571C-3.612,1.762 -3.108,1.861 -2.532,1.861C-1.787,1.861 -1.176,1.687 -0.701,1.341C-0.228,0.998 0.087,0.475 0.24,-0.226L1.974,-0.226C1.742,0.97 1.223,1.873 0.423,2.481" style="fill:white;fill-rule:nonzero;"/>
                </g>
                <g transform="matrix(9.30343,0,0,9.30343,2045.26,625.54)">
                    <path d="M0,5.932C0.165,6.202 0.381,6.415 0.649,6.575C0.921,6.734 1.223,6.847 1.559,6.915C1.898,6.984 2.246,7.02 2.603,7.02C2.879,7.02 3.169,6.996 3.471,6.955C3.775,6.915 4.055,6.84 4.309,6.728C4.565,6.617 4.772,6.456 4.939,6.242C5.105,6.029 5.187,5.757 5.187,5.428C5.187,4.971 5.014,4.629 4.671,4.391C4.325,4.159 3.896,3.968 3.38,3.825C2.861,3.68 2.3,3.549 1.692,3.432C1.088,3.313 0.524,3.15 0.008,2.937C-0.508,2.723 -0.937,2.423 -1.283,2.036C-1.626,1.651 -1.799,1.114 -1.799,0.425C-1.799,-0.111 -1.678,-0.573 -1.438,-0.959C-1.197,-1.346 -0.884,-1.66 -0.508,-1.9C-0.129,-2.142 0.3,-2.321 0.774,-2.438C1.249,-2.553 1.72,-2.615 2.188,-2.615C2.796,-2.615 3.354,-2.563 3.864,-2.46C4.373,-2.355 4.825,-2.176 5.219,-1.92C5.612,-1.666 5.922,-1.324 6.16,-0.887C6.392,-0.454 6.531,0.088 6.571,0.735L4.814,0.735C4.786,0.39 4.698,0.104 4.547,-0.123C4.393,-0.351 4.2,-0.532 3.968,-0.671C3.735,-0.81 3.475,-0.909 3.191,-0.971C2.909,-1.032 2.625,-1.064 2.335,-1.064C2.073,-1.064 1.807,-1.042 1.539,-1.002C1.271,-0.959 1.027,-0.887 0.804,-0.784C0.586,-0.679 0.407,-0.544 0.268,-0.371C0.129,-0.198 0.06,0.026 0.06,0.302C0.06,0.602 0.167,0.854 0.381,1.057C0.594,1.255 0.868,1.42 1.197,1.553C1.529,1.682 1.9,1.79 2.313,1.881C2.728,1.974 3.14,2.066 3.555,2.159C3.993,2.258 4.426,2.373 4.847,2.512C5.266,2.651 5.636,2.832 5.963,3.059C6.285,3.289 6.547,3.573 6.748,3.918C6.946,4.262 7.046,4.689 7.046,5.199C7.046,5.847 6.911,6.385 6.644,6.812C6.376,7.237 6.023,7.584 5.59,7.844C5.155,8.106 4.665,8.287 4.124,8.392C3.578,8.494 3.036,8.547 2.5,8.547C1.906,8.547 1.344,8.486 0.804,8.363C0.268,8.239 -0.207,8.033 -0.62,7.751C-1.035,7.469 -1.364,7.096 -1.612,6.635C-1.859,6.174 -1.998,5.612 -2.026,4.951L-0.272,4.951C-0.256,5.338 -0.167,5.664 0,5.932" style="fill:white;fill-rule:nonzero;"/>
                </g>
                <g transform="matrix(9.30343,0,0,9.30343,2141.4,625.54)">
                    <path d="M0,5.932C0.165,6.202 0.381,6.415 0.649,6.575C0.921,6.734 1.223,6.847 1.559,6.915C1.898,6.984 2.246,7.02 2.603,7.02C2.879,7.02 3.169,6.996 3.473,6.955C3.775,6.915 4.055,6.84 4.309,6.728C4.565,6.617 4.772,6.456 4.939,6.242C5.105,6.029 5.187,5.757 5.187,5.428C5.187,4.971 5.014,4.629 4.671,4.391C4.325,4.159 3.896,3.968 3.38,3.825C2.86,3.68 2.302,3.549 1.692,3.432C1.088,3.313 0.526,3.15 0.008,2.937C-0.508,2.723 -0.937,2.423 -1.283,2.036C-1.626,1.651 -1.799,1.114 -1.799,0.425C-1.799,-0.111 -1.678,-0.573 -1.438,-0.959C-1.197,-1.346 -0.884,-1.66 -0.508,-1.9C-0.129,-2.142 0.3,-2.321 0.774,-2.438C1.249,-2.553 1.72,-2.615 2.188,-2.615C2.798,-2.615 3.354,-2.563 3.864,-2.46C4.373,-2.355 4.824,-2.176 5.219,-1.92C5.612,-1.666 5.922,-1.324 6.16,-0.887C6.392,-0.454 6.531,0.088 6.571,0.735L4.816,0.735C4.786,0.39 4.698,0.104 4.547,-0.123C4.395,-0.351 4.2,-0.532 3.968,-0.671C3.735,-0.81 3.475,-0.909 3.191,-0.971C2.909,-1.032 2.625,-1.064 2.337,-1.064C2.073,-1.064 1.807,-1.042 1.541,-1.002C1.271,-0.959 1.027,-0.887 0.804,-0.784C0.586,-0.679 0.407,-0.544 0.268,-0.371C0.129,-0.198 0.06,0.026 0.06,0.302C0.06,0.602 0.167,0.854 0.381,1.057C0.594,1.255 0.868,1.42 1.197,1.553C1.529,1.682 1.9,1.79 2.313,1.881C2.728,1.974 3.14,2.066 3.555,2.159C3.993,2.258 4.426,2.373 4.847,2.512C5.266,2.651 5.636,2.832 5.963,3.059C6.287,3.289 6.549,3.573 6.748,3.918C6.946,4.262 7.048,4.689 7.048,5.199C7.048,5.847 6.911,6.385 6.643,6.812C6.376,7.237 6.023,7.584 5.59,7.844C5.157,8.106 4.665,8.287 4.124,8.392C3.578,8.494 3.036,8.547 2.5,8.547C1.906,8.547 1.344,8.486 0.804,8.363C0.268,8.239 -0.207,8.033 -0.62,7.751C-1.035,7.469 -1.364,7.096 -1.612,6.635C-1.859,6.174 -1.998,5.612 -2.027,4.951L-0.27,4.951C-0.256,5.338 -0.167,5.664 0,5.932" style="fill:white;fill-rule:nonzero;"/>
                </g>
                <g transform="matrix(9.30343,0,0,9.30343,2823.53,662.612)">
                    <path d="M0,-12.013C0,-7.996 -0.008,-4.294 0.026,-0.591C0.028,-0.388 0.389,-0.015 0.588,-0.013C1.821,-0.001 3.072,0.047 4.283,-0.138C6.656,-0.503 8.04,-1.862 8.442,-4.252C8.869,-6.778 8.763,-9.223 6.426,-10.933C6.005,-11.242 5.487,-11.532 4.984,-11.592C3.378,-11.789 1.759,-11.874 0,-12.013M-6.045,-6.026C-6.045,-9.237 -6.021,-12.448 -6.065,-15.657C-6.075,-16.461 -5.832,-16.693 -5.042,-16.672C-1.634,-16.59 1.781,-16.646 5.187,-16.497C10.817,-16.249 13.748,-13.49 14.441,-7.904C14.723,-5.629 14.584,-3.365 13.964,-1.147C13.09,1.969 11.021,3.865 7.846,4.312C5.773,4.604 3.65,4.572 1.547,4.618C-0.56,4.664 -2.669,4.58 -4.776,4.648C-5.747,4.68 -6.106,4.479 -6.075,3.401C-5.993,0.261 -6.045,-2.884 -6.045,-6.026" style="fill:white;fill-rule:nonzero;"/>
                </g>
                <g transform="matrix(9.30343,0,0,9.30343,2240.54,706.074)">
                    <path d="M0,-21.456C4.818,-21.323 9.619,-21.484 14.349,-20.973C18.784,-20.491 21.057,-17.663 21.206,-13.187C21.349,-8.94 21.244,-4.686 21.244,-0.436C21.244,-0.345 21.19,-0.252 21.141,-0.105L15.43,-0.105C15.412,-0.444 15.38,-0.796 15.378,-1.147C15.354,-4.392 15.334,-7.637 15.314,-10.882C15.314,-10.983 15.307,-11.084 15.299,-11.183C14.941,-15.012 13.69,-16.152 9.852,-16.152C8.882,-16.152 7.907,-16.108 6.94,-16.166C6.174,-16.212 5.977,-15.933 5.981,-15.193C6.011,-10.542 5.969,-5.889 6.019,-1.237C6.029,-0.264 5.755,0.028 4.79,-0.023C3.225,-0.101 1.652,-0.045 0,-0.045L0,-21.456Z" style="fill:white;fill-rule:nonzero;"/>
                </g>
                <g transform="matrix(9.30343,0,0,9.30343,3177.94,668.002)">
                    <path d="M0,-12.85C-0.079,-12.85 -0.157,-12.848 -0.236,-12.846C-1.398,-9.752 -2.56,-6.658 -3.753,-3.483L3.414,-3.483C2.252,-6.67 1.126,-9.76 0,-12.85M12.358,4.041C10.308,4.041 8.346,4.059 6.382,4.019C6.184,4.015 5.906,3.706 5.816,3.481C5.493,2.675 5.189,1.855 4.968,1.019C4.816,0.449 4.518,0.3 3.97,0.306C1.193,0.326 -1.585,0.328 -4.363,0.302C-4.929,0.298 -5.197,0.499 -5.37,1.027C-5.695,2.008 -5.826,3.35 -6.525,3.827C-7.266,4.335 -8.577,4.021 -9.639,4.045C-10.495,4.063 -11.353,4.049 -12.405,4.049C-11.7,2.236 -11.065,0.598 -10.421,-1.036C-8.412,-6.134 -6.392,-11.228 -4.395,-16.333C-4.174,-16.893 -3.916,-17.185 -3.249,-17.173C-1.076,-17.131 1.1,-17.135 3.275,-17.171C3.888,-17.181 4.156,-16.937 4.369,-16.399C6.962,-9.843 9.574,-3.294 12.177,3.259C12.258,3.465 12.28,3.694 12.358,4.041" style="fill:white;fill-rule:nonzero;"/>
                </g>
                <g transform="matrix(9.30343,0,0,9.30343,2552.25,553.744)">
                    <path d="M0,11.381C0.906,8.345 1.813,5.308 2.717,2.272C3.356,0.126 3.972,-2.027 4.649,-4.158C4.746,-4.468 5.113,-4.908 5.368,-4.918C7.199,-4.982 9.037,-4.952 11.043,-4.952C10.529,-3.318 10.064,-1.805 9.574,-0.299C7.868,4.943 6.138,10.178 4.456,15.428C4.234,16.119 3.928,16.363 3.195,16.346C0.888,16.298 -1.422,16.322 -3.731,16.336C-4.234,16.338 -4.575,16.288 -4.764,15.694C-6.903,9.01 -9.075,2.338 -11.23,-4.338C-11.279,-4.487 -11.259,-4.656 -11.281,-4.946C-9.228,-4.946 -7.232,-4.974 -5.24,-4.905C-5.018,-4.9 -4.72,-4.372 -4.621,-4.037C-3.215,0.807 -1.837,5.66 -0.451,10.509C-0.369,10.795 -0.274,11.079 -0.185,11.361C-0.125,11.369 -0.062,11.375 0,11.381" style="fill:white;fill-rule:nonzero;"/>
                </g>
                <g transform="matrix(9.30343,0,0,9.30343,3039.49,507.474)">
                    <path d="M0,21.299C-1.801,21.299 -3.604,21.325 -5.403,21.263C-5.594,21.257 -5.926,20.743 -5.93,20.461C-5.971,17.818 -5.955,15.173 -5.955,12.53C-5.955,8.683 -5.938,4.835 -5.969,0.988C-5.975,0.256 -5.787,-0.026 -5.018,0.003C-3.545,0.055 -2.071,0.029 -0.598,0.013C-0.113,0.007 0.147,0.132 0.145,0.679C0.125,7.47 0.117,14.263 0.103,21.053C0.103,21.083 0.079,21.114 0,21.299" style="fill:white;fill-rule:nonzero;"/>
                </g>
                <g transform="matrix(9.30343,0,0,9.30343,2677.73,507.315)">
                    <path d="M0,21.313L0,17.131C0,11.783 0.018,6.433 -0.018,1.084C-0.024,0.248 0.21,-0.022 1.048,0.017C2.415,0.081 3.789,0.057 5.161,0.025C5.793,0.009 6.049,0.2 6.047,0.875C6.029,7.428 6.041,13.98 6.013,20.533C6.013,20.793 5.701,21.273 5.522,21.279C3.727,21.335 1.928,21.313 0,21.313" style="fill:white;fill-rule:nonzero;"/>
                </g>
            </g>
        </g>
    </g>
</svg>
