<?xml version="1.0" encoding="UTF-8" standalone="no"?>
<!DOCTYPE svg PUBLIC "-//W3C//DTD SVG 1.1//EN" "http://www.w3.org/Graphics/SVG/1.1/DTD/svg11.dtd">
<svg width="100%" height="100%" viewBox="0 0 1072 427" version="1.1" xmlns="http://www.w3.org/2000/svg" xmlns:xlink="http://www.w3.org/1999/xlink" xml:space="preserve" xmlns:serif="http://www.serif.com/" style="fill-rule:evenodd;clip-rule:evenodd;stroke-linejoin:round;stroke-miterlimit:2;">
    <g id="Artboard2" transform="matrix(1,0,0,1,-1097.34,-686.37)">
        <rect x="1097.34" y="686.37" width="1071.22" height="426.075" style="fill:none;"/>
        <clipPath id="_clip1">
            <rect x="1097.34" y="686.37" width="1071.22" height="426.075"/>
        </clipPath>
        <g clip-path="url(#_clip1)">
            <g id="Artboard1" transform="matrix(1.92378,0,0,1.74945,670.659,591.247)">
                <rect x="-348.437" y="-337.75" width="1708" height="1050" style="fill:none;"/>
                <g>
                    <g transform="matrix(0.51981,0,0,0.571607,240.759,66.0725)">
                        <path d="M74.56,247.66C81.02,243.33 87.23,239.81 93.2,237.04C99.16,234.27 105,232.17 110.73,230.73C113.71,230 116.63,229.47 119.48,229.11C122.32,228.73 125.26,228.57 128.24,228.57L132.51,228.57C133.88,228.57 135.19,228.69 136.45,228.92C142.4,229.42 148.62,230.43 155.09,232C161.55,233.55 169.48,236.12 178.95,239.73C180.19,240.22 181.07,240.57 181.55,240.81C182.07,241.04 182.54,241.17 183.05,241.17C183.79,241.66 185.15,242.25 187.16,242.97C189.12,243.7 193.97,245.61 201.7,248.74L213.25,253.05L224.44,257.73C229.66,259.65 234,261.16 237.48,262.24C240.95,263.32 243.57,263.86 245.32,263.86C247.8,263.86 250.71,262.66 254.08,260.25C257.43,257.86 260.85,254.62 264.32,250.54C265.32,249.58 266.19,248.55 266.94,247.47C267.67,246.39 268.43,245.38 269.17,244.43L274.75,247.66C274.27,248.13 273.95,248.55 273.82,248.92C273.68,249.28 273.51,249.58 273.27,249.82C273,250.31 272.56,250.96 271.96,251.79C271.32,252.63 270.27,254.13 268.78,256.29C265.55,260.62 263.43,263.5 262.44,264.94C261.45,266.39 260.71,267.47 260.21,268.18C259.7,268.68 259.29,269.26 258.89,269.99C258.53,270.71 257.86,271.79 256.86,273.21C253.13,278.51 250.81,281.82 249.97,283.13C249.1,284.44 248.41,285.48 247.9,286.18C247.67,286.41 247.43,286.67 247.17,286.9C246.91,287.13 246.66,287.49 246.42,287.98C244.91,287.75 243.44,287.38 241.93,286.9C240.44,286.41 238.97,286.06 237.46,285.82C232.75,284.63 227.82,283.01 222.72,280.97C217.62,278.94 211.24,276.24 203.53,272.86C182.16,263.5 165.13,256.78 152.45,252.7C139.78,248.62 127.96,246.35 117.04,245.86C115.8,245.62 114.53,245.5 113.3,245.5L109.59,245.5C98.16,245.5 88.2,247.77 79.76,252.32C71.31,256.89 63.11,264.34 55.14,274.67C54.15,276.09 53.15,277.55 52.15,278.97C51.16,280.42 50.17,281.86 49.17,283.28L43.59,279.7L81.24,224.61C73.79,215.48 68.21,205.87 64.46,195.8C60.75,185.72 58.89,175.14 58.89,164.1C58.89,145.14 64.98,128.64 77.14,114.59C89.33,100.55 103.49,93.54 119.64,93.54C124.61,93.54 129.15,94.2 133.26,95.51C137.35,96.84 141.38,98.93 145.36,101.81C147.36,103.24 149.42,104.93 151.52,106.86C153.64,108.78 155.68,110.94 157.66,113.35C157.66,113.1 157.79,112.86 158.03,112.63C158.03,112.4 158.35,111.71 158.98,110.64C159.59,109.56 161.27,106.87 164,102.55C164.51,101.82 164.94,101.1 165.32,100.39C165.68,99.66 166.12,98.94 166.63,98.21C167.86,95.59 168.86,93.05 169.61,90.66C170.34,88.27 170.73,86.08 170.73,84.16L170.73,82.38C170.73,81.89 170.59,81.42 170.34,80.94C170.11,80.7 169.78,80.35 169.41,79.85C169.05,79.38 168.62,78.77 168.1,78.05L170.33,78.05C170.33,77.82 170.4,77.69 170.53,77.69L174.08,77.69C175.54,77.69 178.17,77.58 181.92,77.34C183.15,77.34 184.64,77.2 186.39,76.96C188.11,76.73 190.97,76.49 194.95,76.24C193.46,78.18 191.65,80.61 189.54,83.62C187.42,86.62 184.01,91.62 179.3,98.57C178.78,99.28 178.3,100 177.81,100.73C177.29,101.46 176.81,102.16 176.31,102.89C176.31,103.13 176.18,103.39 175.93,103.62C174.43,106.01 172.76,108.47 170.88,111.01C169.04,113.51 166.61,116.82 163.62,120.9C163.87,121.13 164.1,121.51 164.38,121.98C164.62,122.48 165.35,123.49 166.61,125.05C167.84,126.6 170.96,130.75 175.92,137.47C185.1,149.47 194.62,158.36 204.44,164.1C214.25,169.87 225,172.75 236.67,172.75C251.09,172.75 264.04,165.91 275.46,152.22C286.9,138.56 292.6,123.2 292.6,106.14C292.6,91.98 287.77,81.59 278.06,75.01C268.37,68.4 253.19,65.08 232.57,65.08C224.88,65.08 214.87,65.4 202.57,66C190.27,66.59 174.41,67.63 155.04,69.05C153.53,69.05 152.54,69.12 152.06,69.24C151.54,69.35 151.06,69.42 150.54,69.42C149.07,69.42 145.27,69.65 139.19,70.12C133.1,70.61 114.63,71.92 83.83,74.08C80.85,74.34 77.98,74.51 75.27,74.62C72.52,74.76 69.78,74.93 67.05,75.17C64.07,75.42 60.89,75.54 57.54,75.54L46.91,75.54C35.24,75.54 25.53,74.89 17.84,73.56C10.14,72.25 4.17,70.13 -0.06,67.24L14.18,17.93L20.52,19.74C19.52,24.54 18.77,28.08 18.26,30.35C17.78,32.63 17.52,34.74 17.52,36.67L17.52,37.39C17.52,43.13 20.13,47.17 25.35,49.43C30.57,51.73 39.77,52.86 52.95,52.86C63.15,52.86 75.26,52.5 89.31,51.78C103.34,51.05 120.67,49.97 141.29,48.55C152.73,47.58 162.56,46.81 170.76,46.21C178.97,45.6 184.92,45.17 188.66,44.94C196.87,44.47 204.87,44.1 212.71,43.86C220.53,43.63 227.41,43.5 233.4,43.5C259.25,43.5 278.57,47.7 291.37,56.09C304.17,64.5 310.57,77.21 310.57,94.25C310.57,97.39 310.31,100.63 309.81,103.99C309.31,107.36 308.7,110.71 307.96,114.06C305.73,121.98 302.37,129.73 297.88,137.29C293.41,144.86 288.07,151.76 281.86,157.99C273.41,166.87 264.1,173.41 253.9,177.61C243.7,181.82 232.39,183.91 219.96,183.91C212.51,183.91 205.8,183.19 199.84,181.75C193.87,180.31 188.02,177.9 182.31,174.56C177.1,171.18 171.8,166.87 166.46,161.6C161.12,156.32 155.11,149.71 148.37,141.79L74.56,247.65L74.56,247.66ZM142.79,134.6C139.05,129.55 135.46,125.29 131.96,121.8C128.49,118.33 125.13,115.64 121.91,113.71C119.4,112.26 116.94,111.25 114.44,110.64C111.95,110.05 109.46,109.75 106.98,109.75C96.3,109.75 87.46,113.64 80.52,121.44C73.56,129.25 70.08,139.14 70.08,151.14C70.08,154.28 70.32,157.4 70.81,160.51C71.33,163.63 71.93,166.63 72.69,169.52C74.44,174.79 77.1,180.25 80.7,185.9C84.31,191.53 89.09,197.72 95.08,204.45L142.8,134.59L142.79,134.6Z" style="fill:white;fill-rule:nonzero;"/>
                        <path d="M285.23,171.43L285.23,185.34L285.48,185.34C288.21,179.98 291.57,176.02 295.52,173.48C299.48,170.94 304.48,169.75 310.55,169.91L310.55,181.37C306.07,181.37 302.24,181.97 299.07,183.16C295.91,184.36 293.36,186.09 291.43,188.39C289.47,190.69 288.08,193.46 287.2,196.73C286.33,200 285.89,203.77 285.89,208.01L285.89,237.31L274.66,237.31L274.66,171.43L285.23,171.43Z" style="fill:white;fill-rule:nonzero;"/>
                        <path d="M319.67,146.32L330.88,146.32L330.88,159.59L319.67,159.59L319.67,146.32ZM330.88,237.31L319.67,237.31L319.67,171.43L330.88,171.43L330.88,237.31Z" style="fill:white;fill-rule:nonzero;"/>
                        <path d="M358.84,171.43L358.84,181.88L359.11,181.88C363.78,173.9 371.15,169.91 381.28,169.91C385.76,169.91 389.51,170.51 392.49,171.7C395.47,172.89 397.9,174.55 399.75,176.66C401.6,178.79 402.9,181.32 403.65,184.25C404.39,187.18 404.77,190.41 404.77,193.99L404.77,237.32L393.55,237.32L393.55,192.72C393.55,188.64 392.32,185.43 389.86,183.05C387.4,180.67 384.01,179.48 379.7,179.48C376.26,179.48 373.3,179.99 370.8,181.01C368.28,182.03 366.19,183.48 364.51,185.35C362.86,187.21 361.59,189.4 360.76,191.9C359.94,194.41 359.51,197.15 359.51,200.12L359.51,237.32L348.3,237.32L348.3,171.44L358.84,171.44L358.84,171.43Z" style="fill:white;fill-rule:nonzero;"/>
                        <path d="M462.43,182.91C459.61,180.59 455.82,179.46 451.08,179.46C447.02,179.46 443.64,180.18 440.92,181.63C438.19,183.07 436.02,185 434.39,187.36C432.77,189.74 431.6,192.48 430.9,195.59C430.18,198.68 429.84,201.9 429.84,205.2C429.84,208.26 430.2,211.23 430.97,214.12C431.72,217.01 432.88,219.58 434.47,221.82C436.05,224.08 438.1,225.9 440.67,227.24C443.21,228.59 446.24,229.28 449.78,229.28C455.31,229.28 459.64,227.88 462.77,225.07C465.88,222.26 467.8,218.32 468.5,213.21L479.98,213.21C478.75,221.38 475.6,227.67 470.54,232.07C465.49,236.51 458.62,238.7 449.91,238.7C444.72,238.7 440.11,237.91 436.12,236.29C432.11,234.67 428.78,232.37 426.09,229.4C423.39,226.44 421.37,222.88 420.01,218.76C418.65,214.65 417.96,210.11 417.96,205.19C417.96,200.27 418.63,195.66 419.96,191.36C421.27,187.08 423.27,183.33 425.95,180.14C428.63,176.96 431.99,174.45 436.04,172.62C440.08,170.81 444.79,169.88 450.15,169.88C454.02,169.88 457.65,170.32 461.03,171.23C464.41,172.12 467.42,173.5 470.01,175.37C472.6,177.23 474.74,179.58 476.39,182.43C478.06,185.29 479.14,188.67 479.58,192.56L467.95,192.56C467.08,188.4 465.24,185.17 462.42,182.89" style="fill:white;fill-rule:nonzero;"/>
                        <path d="M540.79,233.11C535.68,236.84 529.26,238.71 521.54,238.71C516.06,238.71 511.35,237.86 507.34,236.17C503.35,234.47 499.98,232.09 497.26,229.03C494.53,225.98 492.49,222.33 491.11,218.08C489.74,213.83 488.99,209.21 488.8,204.19C488.8,199.17 489.59,194.59 491.18,190.41C492.76,186.26 494.98,182.65 497.85,179.59C500.69,176.54 504.08,174.15 508.01,172.46C511.93,170.76 516.22,169.91 520.86,169.91C526.94,169.91 531.97,171.11 535.99,173.55C539.98,175.97 543.17,179.04 545.62,182.78C548.02,186.53 549.71,190.6 550.61,195.01C551.54,199.45 551.92,203.66 551.74,207.63L500.67,207.63C500.58,210.53 500.95,213.27 501.74,215.84C502.53,218.44 503.8,220.73 505.55,222.75C507.31,224.73 509.56,226.32 512.29,227.51C515.01,228.7 518.23,229.3 521.91,229.3C526.66,229.3 530.57,228.24 533.6,226.11C536.61,223.99 538.62,220.76 539.6,216.44L550.67,216.44C549.2,223.82 545.87,229.39 540.78,233.13M538.07,190.82C537.05,188.52 535.69,186.56 533.97,184.9C532.26,183.23 530.24,181.92 527.9,180.93C525.57,179.97 523,179.48 520.19,179.48C517.38,179.48 514.66,179.98 512.35,180.93C510,181.92 508,183.26 506.32,184.95C504.67,186.66 503.34,188.63 502.36,190.89C501.41,193.13 500.83,195.53 500.64,198.09L539.83,198.09C539.64,195.53 539.06,193.12 538.05,190.82" style="fill:white;fill-rule:nonzero;"/>
                        <path d="M571.93,222.59C572.98,224.27 574.35,225.57 576.07,226.56C577.8,227.54 579.73,228.23 581.88,228.66C584.03,229.09 586.26,229.3 588.54,229.3C590.29,229.3 592.15,229.16 594.09,228.91C596.02,228.66 597.81,228.19 599.42,227.5C601.06,226.83 602.39,225.83 603.45,224.52C604.5,223.21 605.04,221.52 605.04,219.48C605.04,216.67 603.92,214.56 601.74,213.1C599.53,211.66 596.78,210.49 593.49,209.6C590.17,208.7 586.61,207.91 582.71,207.18C578.84,206.45 575.25,205.43 571.97,204.13C568.67,202.81 565.93,200.96 563.72,198.58C561.53,196.2 560.42,192.89 560.42,188.64C560.42,185.33 561.19,182.5 562.73,180.1C564.27,177.72 566.26,175.79 568.67,174.31C571.08,172.81 573.83,171.72 576.84,170.98C579.87,170.27 582.9,169.89 585.88,169.89C589.76,169.89 593.32,170.22 596.57,170.86C599.82,171.5 602.7,172.6 605.23,174.18C607.73,175.75 609.72,177.86 611.22,180.55C612.72,183.22 613.6,186.56 613.85,190.56L602.64,190.56C602.45,188.42 601.89,186.66 600.93,185.26C599.95,183.86 598.72,182.74 597.22,181.88C595.73,181.03 594.07,180.43 592.28,180.03C590.47,179.66 588.65,179.46 586.8,179.46C585.13,179.46 583.44,179.58 581.72,179.84C580.01,180.1 578.44,180.55 577.02,181.19C575.62,181.83 574.48,182.67 573.6,183.73C572.72,184.8 572.27,186.18 572.27,187.87C572.27,189.74 572.95,191.28 574.31,192.53C575.67,193.76 577.42,194.77 579.52,195.59C581.64,196.38 584.01,197.07 586.64,197.61C589.28,198.18 591.92,198.75 594.57,199.33C597.37,199.93 600.13,200.65 602.83,201.5C605.48,202.35 607.86,203.48 609.94,204.88C612.01,206.28 613.69,208.04 614.95,210.16C616.21,212.3 616.87,214.93 616.87,218.07C616.87,222.07 616,225.37 614.29,228.01C612.57,230.64 610.33,232.77 607.57,234.38C604.79,236 601.66,237.12 598.21,237.76C594.72,238.4 591.27,238.72 587.85,238.72C584.05,238.72 580.46,238.34 577.02,237.58C573.6,236.82 570.56,235.56 567.93,233.82C565.28,232.08 563.18,229.78 561.59,226.93C560.01,224.09 559.13,220.62 558.95,216.55L570.16,216.55C570.25,218.93 570.82,220.93 571.9,222.59" style="fill:white;fill-rule:nonzero;"/>
                        <path d="M637.9,222.59C638.95,224.27 640.32,225.57 642.05,226.56C643.78,227.54 645.71,228.23 647.85,228.66C650.01,229.09 652.23,229.3 654.52,229.3C656.27,229.3 658.13,229.16 660.06,228.91C662,228.66 663.78,228.19 665.4,227.5C667.04,226.83 668.37,225.83 669.43,224.52C670.48,223.21 671.01,221.52 671.01,219.48C671.01,216.67 669.9,214.56 667.71,213.1C665.5,211.66 662.76,210.49 659.46,209.6C656.14,208.7 652.58,207.91 648.7,207.18C644.83,206.45 641.24,205.43 637.95,204.13C634.65,202.81 631.93,200.96 629.71,198.58C627.52,196.2 626.4,192.89 626.4,188.64C626.4,185.33 627.18,182.5 628.71,180.1C630.25,177.72 632.25,175.79 634.65,174.31C637.07,172.81 639.81,171.72 642.83,170.98C645.86,170.27 648.88,169.89 651.86,169.89C655.75,169.89 659.3,170.22 662.56,170.86C665.81,171.5 668.69,172.6 671.21,174.18C673.71,175.75 675.71,177.86 677.2,180.55C678.7,183.22 679.58,186.56 679.83,190.56L668.63,190.56C668.44,188.42 667.87,186.66 666.91,185.26C665.93,183.86 664.7,182.74 663.2,181.88C661.73,181.03 660.05,180.43 658.26,180.03C656.46,179.66 654.64,179.46 652.79,179.46C651.12,179.46 649.42,179.58 647.71,179.84C645.99,180.1 644.42,180.55 643,181.19C641.6,181.83 640.46,182.67 639.59,183.73C638.71,184.8 638.26,186.18 638.26,187.87C638.26,189.74 638.94,191.28 640.29,192.53C641.66,193.76 643.41,194.77 645.51,195.59C647.63,196.38 649.99,197.07 652.62,197.61C655.27,198.18 657.91,198.75 660.56,199.33C663.36,199.93 666.12,200.65 668.81,201.5C671.47,202.35 673.86,203.48 675.93,204.88C677.99,206.28 679.67,208.04 680.94,210.16C682.2,212.3 682.85,214.93 682.85,218.07C682.85,222.07 681.99,225.37 680.27,228.01C678.56,230.64 676.31,232.77 673.56,234.38C670.78,236 667.65,237.12 664.19,237.76C660.71,238.4 657.25,238.72 653.84,238.72C650.04,238.72 646.45,238.34 643,237.58C639.59,236.82 636.54,235.56 633.91,233.82C631.27,232.08 629.17,229.78 627.58,226.93C626,224.09 625.12,220.62 624.93,216.55L636.15,216.55C636.24,218.93 636.8,220.93 637.88,222.59" style="fill:white;fill-rule:nonzero;"/>
                        <path d="M651.1,315.08C651.1,295.29 651.27,275.5 650.98,255.71C650.91,250.76 652.48,249.32 657.51,249.44C679.27,249.95 701.06,249.6 722.82,250.53C758.76,252.06 777.47,269.07 781.89,303.51C783.7,317.53 782.81,331.49 778.84,345.16C773.27,364.39 760.07,376.07 739.79,378.82C726.55,380.62 712.99,380.43 699.57,380.71C686.12,380.99 672.66,380.48 659.21,380.9C653.02,381.09 650.73,379.84 650.91,373.21C651.45,353.84 651.1,334.45 651.1,315.07M689.7,278.16C689.7,302.92 689.64,325.76 689.86,348.59C689.88,349.84 692.19,352.13 693.44,352.15C701.33,352.23 709.3,352.53 717.04,351.38C732.19,349.14 741.01,340.75 743.58,326.02C746.31,310.45 745.63,295.37 730.72,284.82C728.03,282.92 724.72,281.14 721.51,280.76C711.25,279.55 700.91,279.02 689.69,278.17" style="fill:white;fill-rule:nonzero;"/>
                        <path d="M289.65,248.76C320.41,249.58 351.07,248.58 381.26,251.74C409.58,254.7 424.08,272.15 425.05,299.75C425.95,325.92 425.28,352.16 425.28,378.36C425.28,378.93 424.93,379.5 424.63,380.4L388.17,380.4C388.05,378.3 387.84,376.15 387.82,373.98C387.67,353.97 387.56,333.96 387.41,313.96C387.41,313.34 387.38,312.72 387.32,312.11C385.06,288.5 377.06,281.46 352.56,281.46C346.36,281.46 340.14,281.74 333.96,281.38C329.08,281.1 327.82,282.82 327.85,287.38C328.04,316.06 327.77,344.75 328.08,373.42C328.15,379.42 326.41,381.21 320.23,380.91C310.24,380.42 300.21,380.79 289.65,380.79L289.65,248.76Z" style="fill:white;fill-rule:nonzero;"/>
                        <path d="M1011.79,380.73C998.71,380.73 986.17,380.83 973.64,380.58C972.38,380.56 970.61,378.67 970.02,377.27C967.97,372.31 966.04,367.25 964.62,362.09C963.65,358.58 961.75,357.66 958.25,357.69C940.52,357.82 922.78,357.84 905.06,357.68C901.44,357.65 899.74,358.89 898.62,362.15C896.56,368.19 895.72,376.47 891.26,379.41C886.52,382.54 878.17,380.61 871.38,380.75C865.91,380.86 860.43,380.77 853.71,380.77C858.23,369.6 862.27,359.5 866.39,349.43C879.21,318 892.11,286.58 904.86,255.12C906.26,251.65 907.91,249.86 912.16,249.93C926.05,250.19 939.94,250.16 953.82,249.94C957.73,249.88 959.46,251.38 960.8,254.7C977.37,295.13 994.04,335.5 1010.65,375.91C1011.17,377.17 1011.3,378.59 1011.8,380.73M932.91,276.58C932.4,276.59 931.9,276.59 931.39,276.6C923.97,295.68 916.56,314.76 908.95,334.33L954.71,334.33C947.29,314.69 940.1,295.63 932.91,276.58" style="fill:white;fill-rule:nonzero;"/>
                        <path d="M503.55,350.26C509.33,331.54 515.13,312.81 520.89,294.1C524.98,280.86 528.92,267.6 533.22,254.46C533.85,252.55 536.19,249.83 537.81,249.78C549.51,249.38 561.24,249.57 574.04,249.57C570.76,259.63 567.79,268.97 564.67,278.26C553.78,310.58 542.74,342.86 531.99,375.23C530.58,379.48 528.63,381 523.95,380.9C509.21,380.59 494.48,380.74 479.73,380.83C476.52,380.85 474.35,380.53 473.13,376.86C459.48,335.66 445.62,294.53 431.85,253.36C431.54,252.44 431.67,251.4 431.52,249.61C444.63,249.61 457.38,249.44 470.1,249.85C471.5,249.9 473.42,253.16 474.03,255.22C483.01,285.09 491.81,315.01 500.67,344.9C501.19,346.66 501.8,348.4 502.37,350.15C502.76,350.19 503.15,350.23 503.55,350.27" style="fill:white;fill-rule:nonzero;"/>
                        <path d="M837.89,380.75C826.4,380.75 814.89,380.9 803.41,380.53C802.17,380.49 800.06,377.33 800.03,375.59C799.78,359.29 799.88,343 799.88,326.7C799.88,302.98 799.97,279.24 799.79,255.52C799.75,251.01 800.95,249.27 805.87,249.45C815.25,249.78 824.67,249.61 834.08,249.51C837.18,249.47 838.84,250.25 838.83,253.63C838.69,295.5 838.64,337.37 838.55,379.25C838.55,379.43 838.4,379.63 837.9,380.77" style="fill:white;fill-rule:nonzero;"/>
                        <path d="M589.66,380.73L589.66,354.95C589.66,321.97 589.78,288.98 589.54,256.01C589.5,250.86 591,249.18 596.34,249.43C605.08,249.83 613.85,249.67 622.6,249.48C626.64,249.38 628.27,250.56 628.26,254.72C628.13,295.12 628.22,335.52 628.05,375.93C628.05,377.54 626.05,380.49 624.91,380.52C613.45,380.88 601.97,380.73 589.66,380.73" style="fill:white;fill-rule:nonzero;"/>
                    </g>
                    <g transform="matrix(0.51981,0,0,0.571607,240.759,66.0725)">
                        <g>
                            <path d="M705.78,212.47L713.67,233.56L708.86,233.56L707.26,228.87L699.37,228.87L697.72,233.56L693.05,233.56L701.03,212.47L705.79,212.47L705.78,212.47ZM706.05,225.41L703.39,217.67L703.33,217.67L700.58,225.41L706.05,225.41Z" style="fill:white;fill-rule:nonzero;"/>
                            <path d="M719.04,228.37C719.3,228.86 719.63,229.26 720.06,229.56C720.48,229.86 720.98,230.09 721.55,230.24C722.12,230.38 722.71,230.46 723.32,230.46C723.73,230.46 724.18,230.43 724.65,230.36C725.13,230.29 725.57,230.16 725.98,229.96C726.39,229.76 726.74,229.49 727.02,229.15C727.3,228.81 727.43,228.37 727.43,227.84C727.43,227.27 727.24,226.8 726.88,226.45C726.51,226.09 726.04,225.79 725.44,225.56C724.85,225.33 724.18,225.12 723.43,224.94C722.68,224.77 721.93,224.57 721.15,224.35C720.36,224.15 719.6,223.91 718.84,223.63C718.09,223.34 717.43,222.97 716.83,222.52C716.24,222.07 715.76,221.5 715.4,220.82C715.03,220.14 714.85,219.32 714.85,218.36C714.85,217.28 715.08,216.33 715.55,215.54C716.01,214.74 716.62,214.08 717.37,213.55C718.12,213.02 718.97,212.63 719.92,212.37C720.87,212.11 721.81,211.98 722.75,211.98C723.85,211.98 724.92,212.1 725.93,212.35C726.94,212.6 727.84,213 728.63,213.55C729.42,214.1 730.04,214.81 730.51,215.66C730.98,216.51 731.21,217.56 731.21,218.78L726.72,218.78C726.68,218.14 726.55,217.63 726.32,217.21C726.1,216.8 725.8,216.47 725.42,216.23C725.05,216 724.61,215.83 724.14,215.73C723.66,215.63 723.13,215.58 722.56,215.58C722.18,215.58 721.81,215.62 721.43,215.7C721.06,215.78 720.71,215.92 720.41,216.11C720.11,216.31 719.85,216.55 719.66,216.85C719.46,217.15 719.36,217.52 719.36,217.98C719.36,218.39 719.44,218.73 719.59,218.98C719.75,219.24 720.06,219.48 720.52,219.69C720.98,219.91 721.62,220.12 722.45,220.34C723.26,220.56 724.33,220.84 725.65,221.17C726.04,221.25 726.59,221.39 727.29,221.6C727.99,221.81 728.68,222.14 729.37,222.59C730.06,223.04 730.66,223.65 731.16,224.41C731.66,225.17 731.92,226.14 731.92,227.32C731.92,228.29 731.73,229.18 731.35,230C730.97,230.82 730.42,231.55 729.68,232.15C728.94,232.75 728.03,233.21 726.93,233.55C725.84,233.88 724.57,234.05 723.13,234.05C721.97,234.05 720.84,233.91 719.75,233.62C718.66,233.33 717.69,232.88 716.85,232.27C716.01,231.66 715.35,230.88 714.86,229.94C714.37,228.99 714.14,227.87 714.16,226.57L718.65,226.57C718.65,227.27 718.78,227.88 719.04,228.37Z" style="fill:white;fill-rule:nonzero;"/>
                            <path d="M739.31,212.47L739.31,221.22L747.56,212.47L753.35,212.47L745.11,220.8L754.15,233.56L748.32,233.56L741.97,224.08L739.31,226.77L739.31,233.56L734.67,233.56L734.67,212.47L739.31,212.47Z" style="fill:white;fill-rule:nonzero;"/>
                            <path d="M774.74,212.47L782.63,233.56L777.82,233.56L776.22,228.87L768.33,228.87L766.68,233.56L762.01,233.56L769.99,212.47L774.75,212.47L774.74,212.47ZM775.01,225.41L772.35,217.67L772.29,217.67L769.54,225.41L775.01,225.41Z" style="fill:white;fill-rule:nonzero;"/>
                            <path d="M807.24,232.83C805.84,233.64 804.13,234.04 802.13,234.04C800.51,234.04 799.07,233.76 797.77,233.2C796.48,232.63 795.39,231.86 794.51,230.88C793.62,229.89 792.94,228.73 792.47,227.41C792,226.08 791.77,224.64 791.77,223.11C791.77,221.58 792,220.07 792.47,218.72C792.95,217.37 793.62,216.19 794.51,215.19C795.39,214.18 796.48,213.4 797.77,212.82C799.06,212.25 800.51,211.96 802.13,211.96C803.75,211.96 805.22,212.24 806.51,212.82C807.79,213.39 808.87,214.18 809.76,215.19C810.64,216.19 811.33,217.37 811.8,218.72C812.28,220.07 812.51,221.54 812.51,223.11C812.51,224.68 812.28,226.07 811.8,227.4C811.33,228.72 810.65,229.88 809.76,230.89L812.39,233.28L810.23,235.53L807.25,232.84L807.24,232.83ZM806.56,227.96C806.95,227.43 807.27,226.77 807.51,225.98C807.75,225.19 807.87,224.23 807.87,223.12C807.87,222.2 807.77,221.3 807.56,220.43C807.35,219.57 807.02,218.79 806.57,218.11C806.12,217.43 805.53,216.89 804.8,216.49C804.07,216.08 803.18,215.88 802.14,215.88C801.1,215.88 800.21,216.08 799.48,216.49C798.75,216.89 798.16,217.43 797.71,218.11C797.25,218.79 796.93,219.56 796.72,220.42C796.51,221.28 796.41,222.18 796.41,223.1C796.41,224.02 796.51,224.84 796.72,225.67C796.93,226.51 797.25,227.26 797.71,227.93C798.17,228.6 798.75,229.14 799.48,229.54C800.21,229.94 801.1,230.15 802.14,230.15C802.64,230.15 803.01,230.13 803.27,230.09C803.53,230.06 803.77,229.99 804.01,229.88L802.03,228.08L804.19,225.77L806.58,227.96L806.56,227.96Z" style="fill:white;fill-rule:nonzero;"/>
                            <path d="M831.18,231.96C829.59,233.35 827.38,234.04 824.56,234.04C821.74,234.04 819.49,233.35 817.93,231.97C816.36,230.59 815.58,228.46 815.58,225.59L815.58,212.48L820.22,212.48L820.22,225.59C820.22,226.16 820.27,226.73 820.36,227.27C820.46,227.82 820.66,228.31 820.98,228.73C821.3,229.16 821.73,229.5 822.29,229.77C822.86,230.04 823.61,230.17 824.55,230.17C826.21,230.17 827.35,229.8 827.98,229.06C828.61,228.32 828.93,227.17 828.93,225.59L828.93,212.48L833.57,212.48L833.57,225.59C833.57,228.45 832.77,230.57 831.17,231.96L831.18,231.96Z" style="fill:white;fill-rule:nonzero;"/>
                            <path d="M853.34,212.47L853.34,216.37L842.2,216.37L842.2,220.89L852.43,220.89L852.43,224.49L842.2,224.49L842.2,229.66L853.58,229.66L853.58,233.56L837.56,233.56L837.56,212.47L853.34,212.47Z" style="fill:white;fill-rule:nonzero;"/>
                            <path d="M860.25,228.37C860.51,228.86 860.84,229.26 861.27,229.56C861.69,229.86 862.19,230.09 862.76,230.24C863.33,230.38 863.92,230.46 864.53,230.46C864.94,230.46 865.39,230.43 865.86,230.36C866.34,230.29 866.78,230.16 867.19,229.96C867.6,229.76 867.95,229.49 868.23,229.15C868.51,228.81 868.64,228.37 868.64,227.84C868.64,227.27 868.45,226.8 868.09,226.45C867.72,226.09 867.25,225.79 866.65,225.56C866.06,225.33 865.39,225.12 864.64,224.94C863.89,224.77 863.14,224.57 862.36,224.35C861.57,224.15 860.81,223.91 860.05,223.63C859.3,223.34 858.64,222.97 858.04,222.52C857.45,222.07 856.97,221.5 856.61,220.82C856.24,220.14 856.06,219.32 856.06,218.36C856.06,217.28 856.29,216.33 856.76,215.54C857.22,214.74 857.83,214.08 858.58,213.55C859.33,213.02 860.18,212.63 861.13,212.37C862.08,212.11 863.02,211.98 863.96,211.98C865.06,211.98 866.13,212.1 867.14,212.35C868.15,212.6 869.05,213 869.84,213.55C870.63,214.1 871.25,214.81 871.72,215.66C872.18,216.52 872.42,217.56 872.42,218.78L867.93,218.78C867.89,218.14 867.76,217.63 867.53,217.21C867.31,216.8 867.01,216.47 866.63,216.23C866.26,216 865.82,215.83 865.35,215.73C864.87,215.63 864.34,215.58 863.77,215.58C863.39,215.58 863.02,215.62 862.64,215.7C862.27,215.78 861.92,215.92 861.62,216.11C861.32,216.31 861.06,216.55 860.87,216.85C860.67,217.15 860.57,217.52 860.57,217.98C860.57,218.39 860.65,218.73 860.8,218.98C860.96,219.24 861.27,219.48 861.73,219.69C862.19,219.91 862.83,220.12 863.66,220.34C864.47,220.56 865.54,220.84 866.86,221.17C867.25,221.25 867.8,221.39 868.5,221.6C869.2,221.81 869.89,222.14 870.58,222.59C871.27,223.04 871.87,223.65 872.37,224.41C872.87,225.17 873.13,226.14 873.13,227.32C873.13,228.29 872.94,229.18 872.56,230C872.18,230.82 871.63,231.55 870.89,232.15C870.15,232.75 869.24,233.21 868.14,233.55C867.05,233.88 865.78,234.05 864.34,234.05C863.18,234.05 862.05,233.91 860.96,233.62C859.87,233.33 858.9,232.88 858.06,232.27C857.22,231.66 856.56,230.88 856.07,229.94C855.58,228.99 855.35,227.87 855.37,226.57L859.86,226.57C859.86,227.27 859.99,227.88 860.25,228.37Z" style="fill:white;fill-rule:nonzero;"/>
                            <path d="M874.23,216.37L874.23,212.47L891.51,212.47L891.51,216.37L885.19,216.37L885.19,233.56L880.55,233.56L880.55,216.37L874.23,216.37Z" style="fill:white;fill-rule:nonzero;"/>
                            <rect x="893.93" y="212.47" width="4.64" height="21.09" style="fill:white;"/>
                            <path d="M902.45,218.72C902.93,217.37 903.6,216.19 904.49,215.19C905.37,214.18 906.46,213.4 907.75,212.82C909.04,212.24 910.49,211.96 912.11,211.96C913.73,211.96 915.2,212.24 916.49,212.82C917.77,213.39 918.85,214.18 919.74,215.19C920.62,216.19 921.31,217.37 921.78,218.72C922.26,220.07 922.49,221.54 922.49,223.11C922.49,224.68 922.26,226.08 921.78,227.41C921.31,228.74 920.63,229.89 919.74,230.88C918.85,231.86 917.77,232.63 916.49,233.2C915.21,233.76 913.75,234.04 912.11,234.04C910.47,234.04 909.05,233.76 907.75,233.2C906.46,232.63 905.37,231.86 904.49,230.88C903.6,229.89 902.92,228.73 902.45,227.41C901.98,226.08 901.75,224.64 901.75,223.11C901.75,221.58 901.98,220.07 902.45,218.72ZM906.69,225.69C906.9,226.53 907.22,227.28 907.68,227.95C908.14,228.62 908.72,229.16 909.45,229.56C910.18,229.97 911.07,230.17 912.11,230.17C913.15,230.17 914.04,229.97 914.77,229.56C915.49,229.16 916.09,228.62 916.54,227.95C917,227.28 917.33,226.53 917.53,225.69C917.74,224.85 917.84,223.99 917.84,223.11C917.84,222.23 917.74,221.29 917.53,220.42C917.32,219.56 916.99,218.78 916.54,218.1C916.09,217.42 915.5,216.88 914.77,216.48C914.04,216.07 913.15,215.87 912.11,215.87C911.07,215.87 910.18,216.07 909.45,216.48C908.72,216.88 908.13,217.43 907.68,218.1C907.22,218.78 906.9,219.56 906.69,220.42C906.48,221.29 906.38,222.19 906.38,223.11C906.38,224.03 906.48,224.86 906.69,225.69Z" style="fill:white;fill-rule:nonzero;"/>
                            <path d="M930.25,212.47L939.06,226.62L939.12,226.62L939.12,212.47L943.47,212.47L943.47,233.56L938.83,233.56L930.05,219.44L929.99,219.44L929.99,233.56L925.64,233.56L925.64,212.47L930.25,212.47Z" style="fill:white;fill-rule:nonzero;"/>
                            <path d="M960.16,229.02L960.16,233.57L955.52,233.57L955.52,229.02L960.16,229.02ZM958.86,227.25L956.76,227.25L955.63,218.15L955.63,212.48L960.01,212.48L960.01,218.15L958.86,227.25Z" style="fill:white;fill-rule:nonzero;"/>
                        </g>
                        <path d="M835.09,0C770.71,0 718.52,43.86 718.52,97.97C718.52,116.08 724.39,133.03 734.58,147.59L696.87,194.06C695.16,196.16 697.38,199.15 699.89,198.13L760.6,173.33C780.8,187.45 806.76,195.95 835.09,195.95C899.47,195.95 951.66,152.09 951.66,97.98C951.66,43.87 899.47,0 835.09,0ZM845.74,148.73L822.53,148.73L822.53,125.96L845.74,125.96L845.74,148.73ZM869.61,80.88C868.38,83.94 866.85,86.54 865.02,88.72C863.21,90.89 861.19,92.73 858.96,94.26C856.75,95.78 854.66,97.32 852.69,98.84C850.72,100.37 848.97,102.12 847.44,104.09C845.9,106.06 844.94,108.52 844.55,111.48L844.55,117.1L824.6,117.1L824.6,110.44C824.89,106.21 825.71,102.66 827.04,99.8C828.37,96.95 829.91,94.51 831.69,92.49C833.47,90.47 835.33,88.72 837.3,87.24C839.27,85.76 841.1,84.29 842.77,82.8C844.45,81.32 845.8,79.7 846.84,77.92C847.87,76.15 848.33,73.93 848.24,71.27C848.24,66.74 847.13,63.39 844.92,61.21C842.71,59.04 839.63,57.96 835.68,57.96C833.02,57.96 830.72,58.47 828.8,59.51C826.89,60.54 825.3,61.93 824.07,63.65C822.85,65.38 821.94,67.4 821.34,69.71C820.75,72.03 820.46,74.51 820.46,77.18L798.73,77.18C798.83,71.85 799.74,66.98 801.46,62.54C803.19,58.1 805.6,54.26 808.71,51.01C811.82,47.76 815.56,45.23 819.94,43.4C824.33,41.58 829.23,40.67 834.65,40.67C841.66,40.67 847.5,41.63 852.17,43.56C856.85,45.48 860.62,47.87 863.49,50.73C866.35,53.58 868.38,56.66 869.62,59.97C870.85,63.27 871.46,66.35 871.46,69.21C871.46,73.93 870.85,77.83 869.62,80.89L869.61,80.88Z" style="fill:white;fill-rule:nonzero;"/>
                    </g>
                </g>
            </g>
        </g>
    </g>
</svg>
